<?xml version="1.0" encoding="UTF-8" standalone="no"?>
<!-- Created with Inkscape (http://www.inkscape.org/) -->

<svg
   xmlns:dc="http://purl.org/dc/elements/1.1/"
   xmlns:cc="http://creativecommons.org/ns#"
   xmlns:rdf="http://www.w3.org/1999/02/22-rdf-syntax-ns#"
   xmlns:svg="http://www.w3.org/2000/svg"
   xmlns="http://www.w3.org/2000/svg"
   xmlns:sodipodi="http://sodipodi.sourceforge.net/DTD/sodipodi-0.dtd"
   xmlns:inkscape="http://www.inkscape.org/namespaces/inkscape"
   width="28.575001mm"
   height="28.575001mm"
   viewBox="0 0 101.25 101.25001"
   id="svg5798"
   version="1.1"
   inkscape:version="0.91 r13725"
   sodipodi:docname="Cloudy.svg">
  <defs
     id="defs5800" />
  <sodipodi:namedview
     id="base"
     pagecolor="#ffffff"
     bordercolor="#666666"
     borderopacity="1.0"
     inkscape:pageopacity="0.0"
     inkscape:pageshadow="2"
     inkscape:zoom="2.8"
     inkscape:cx="56.002408"
     inkscape:cy="15.80358"
     inkscape:document-units="px"
     inkscape:current-layer="layer1"
     showgrid="false"
     fit-margin-top="0"
     fit-margin-left="0"
     fit-margin-right="0"
     fit-margin-bottom="0"
     inkscape:window-width="1474"
     inkscape:window-height="841"
     inkscape:window-x="54"
     inkscape:window-y="-8"
     inkscape:window-maximized="1" />
  <metadata
     id="metadata5803">
    <rdf:RDF>
      <cc:Work
         rdf:about="">
        <dc:format>image/svg+xml</dc:format>
        <dc:type
           rdf:resource="http://purl.org/dc/dcmitype/StillImage" />
        <dc:title></dc:title>
      </cc:Work>
    </rdf:RDF>
  </metadata>
  <g
     inkscape:label="Layer 1"
     inkscape:groupmode="layer"
     id="layer1"
     transform="translate(-407.61393,-257.29993)">
    <g
       id="g288"
       transform="matrix(1.25,0,0,-1.25,479.73533,306.04993)">
      <path
         d="m 0,0 -6.545,0 -1.119,0 -27.545,0 c -3.565,0 -6.467,2.714 -6.467,6.271 0,3.556 2.902,6.36 6.467,6.36 2.295,0 4.439,-1.279 5.596,-3.265 l 4.972,2.856 c -0.92,1.582 -2.173,2.898 -3.641,3.906 1.016,4.949 5.419,8.678 10.677,8.678 6.011,0 10.898,-4.725 10.898,-10.718 C -6.707,11.842 -7.391,10 -8.685,8 l 6.509,0 c 0.619,1 1.005,2.965 1.151,4.611 0.338,0.055 0.679,0.008 1.025,0.008 3.565,0 6.467,-2.753 6.467,-6.309 C 6.467,2.753 3.565,0 0,0 m 0,18.275 c -0.508,0 -1.013,-0.034 -1.514,-0.098 -1.884,7.106 -8.384,12.357 -16.091,12.357 -7.707,0 -14.206,-5.251 -16.092,-12.356 -0.498,0.063 -1.003,0.097 -1.512,0.097 -6.736,0 -12.217,-5.421 -12.217,-12.138 0,-6.718 5.481,-12.137 12.217,-12.137 l 27.545,0 1.119,0 L 0,-6 c 6.735,0 12.215,5.419 12.215,12.137 0,6.717 -5.48,12.138 -12.215,12.138"
         style="fill:#e7e7e7;fill-opacity:1;fill-rule:nonzero;stroke:none"
         id="path290"
         inkscape:connector-curvature="0" />
    </g>
  </g>
</svg>
