<?xml version="1.0" encoding="UTF-8" standalone="no"?>
<!-- Created with Inkscape (http://www.inkscape.org/) -->

<svg
   xmlns:dc="http://purl.org/dc/elements/1.1/"
   xmlns:cc="http://creativecommons.org/ns#"
   xmlns:rdf="http://www.w3.org/1999/02/22-rdf-syntax-ns#"
   xmlns:svg="http://www.w3.org/2000/svg"
   xmlns="http://www.w3.org/2000/svg"
   xmlns:sodipodi="http://sodipodi.sourceforge.net/DTD/sodipodi-0.dtd"
   xmlns:inkscape="http://www.inkscape.org/namespaces/inkscape"
   width="28.574999mm"
   height="28.575001mm"
   viewBox="0 0 101.24999 101.25001"
   id="svg5798"
   version="1.1"
   inkscape:version="0.91 r13725"
   sodipodi:docname="Drizzle.svg">
  <defs
     id="defs5800" />
  <sodipodi:namedview
     id="base"
     pagecolor="#ffffff"
     bordercolor="#666666"
     borderopacity="1.0"
     inkscape:pageopacity="0.0"
     inkscape:pageshadow="2"
     inkscape:zoom="2.8"
     inkscape:cx="-18.697489"
     inkscape:cy="62.321424"
     inkscape:document-units="px"
     inkscape:current-layer="layer1"
     showgrid="false"
     fit-margin-top="0"
     fit-margin-left="0"
     fit-margin-right="0"
     fit-margin-bottom="0"
     inkscape:window-width="1474"
     inkscape:window-height="841"
     inkscape:window-x="54"
     inkscape:window-y="-8"
     inkscape:window-maximized="1" />
  <metadata
     id="metadata5803">
    <rdf:RDF>
      <cc:Work
         rdf:about="">
        <dc:format>image/svg+xml</dc:format>
        <dc:type
           rdf:resource="http://purl.org/dc/dcmitype/StillImage" />
        <dc:title></dc:title>
      </cc:Work>
    </rdf:RDF>
  </metadata>
  <g
     inkscape:label="Layer 1"
     inkscape:groupmode="layer"
     id="layer1"
     transform="translate(-702.08614,-234.26423)">
    <g
       id="g1496"
       transform="matrix(1.2500001,0,0,-1.2500001,738.52429,296.69773)">
      <path
         d="m 0,0 c 0,0.802 -0.649,1.453 -1.452,1.453 -0.802,0 -1.453,-0.651 -1.453,-1.453 0,-0.801 0.651,-1.453 1.453,-1.453 C -0.649,-1.453 0,-0.801 0,0"
         style="fill:#6ea4d7;fill-opacity:1;fill-rule:nonzero;stroke:none"
         id="path1498"
         inkscape:connector-curvature="0" />
    </g>
    <g
       id="g1500"
       transform="matrix(1.2500001,0,0,-1.2500001,746.56869,296.69773)">
      <path
         d="m 0,0 c 0,0.802 -0.652,1.453 -1.453,1.453 -0.803,0 -1.453,-0.651 -1.453,-1.453 0,-0.801 0.65,-1.453 1.453,-1.453 C -0.652,-1.453 0,-0.801 0,0"
         style="fill:#6ea4d7;fill-opacity:1;fill-rule:nonzero;stroke:none"
         id="path1502"
         inkscape:connector-curvature="0" />
    </g>
    <g
       id="g1504"
       transform="matrix(1.2500001,0,0,-1.2500001,754.61189,296.69773)">
      <path
         d="m 0,0 c 0,0.802 -0.651,1.453 -1.454,1.453 -0.801,0 -1.452,-0.651 -1.452,-1.453 0,-0.801 0.651,-1.453 1.452,-1.453 C -0.651,-1.453 0,-0.801 0,0"
         style="fill:#6ea4d7;fill-opacity:1;fill-rule:nonzero;stroke:none"
         id="path1506"
         inkscape:connector-curvature="0" />
    </g>
    <g
       id="g1508"
       transform="matrix(1.2500001,0,0,-1.2500001,762.65519,296.69773)">
      <path
         d="m 0,0 c 0,0.802 -0.651,1.453 -1.454,1.453 -0.803,0 -1.452,-0.651 -1.452,-1.453 0,-0.801 0.649,-1.453 1.452,-1.453 C -0.651,-1.453 0,-0.801 0,0"
         style="fill:#6ea4d7;fill-opacity:1;fill-rule:nonzero;stroke:none"
         id="path1510"
         inkscape:connector-curvature="0" />
    </g>
    <g
       id="g1512"
       transform="matrix(1.2500001,0,0,-1.2500001,770.69709,296.69773)">
      <path
         d="m 0,0 c 0,0.802 -0.65,1.453 -1.452,1.453 -0.804,0 -1.454,-0.651 -1.454,-1.453 0,-0.801 0.65,-1.453 1.454,-1.453 C -0.65,-1.453 0,-0.801 0,0"
         style="fill:#6ea4d7;fill-opacity:1;fill-rule:nonzero;stroke:none"
         id="path1514"
         inkscape:connector-curvature="0" />
    </g>
    <g
       id="g1516"
       transform="matrix(1.2500001,0,0,-1.2500001,738.52429,304.74033)">
      <path
         d="m 0,0 c 0,0.801 -0.649,1.453 -1.452,1.453 -0.802,0 -1.453,-0.652 -1.453,-1.453 0,-0.802 0.651,-1.453 1.453,-1.453 C -0.649,-1.453 0,-0.802 0,0"
         style="fill:#6ea4d7;fill-opacity:1;fill-rule:nonzero;stroke:none"
         id="path1518"
         inkscape:connector-curvature="0" />
    </g>
    <g
       id="g1520"
       transform="matrix(1.2500001,0,0,-1.2500001,746.56869,304.74033)">
      <path
         d="m 0,0 c 0,0.801 -0.652,1.453 -1.453,1.453 -0.803,0 -1.453,-0.652 -1.453,-1.453 0,-0.802 0.65,-1.453 1.453,-1.453 C -0.652,-1.453 0,-0.802 0,0"
         style="fill:#6ea4d7;fill-opacity:1;fill-rule:nonzero;stroke:none"
         id="path1522"
         inkscape:connector-curvature="0" />
    </g>
    <g
       id="g1524"
       transform="matrix(1.2500001,0,0,-1.2500001,754.61189,304.74033)">
      <path
         d="m 0,0 c 0,0.801 -0.651,1.453 -1.454,1.453 -0.801,0 -1.452,-0.652 -1.452,-1.453 0,-0.802 0.651,-1.453 1.452,-1.453 C -0.651,-1.453 0,-0.802 0,0"
         style="fill:#6ea4d7;fill-opacity:1;fill-rule:nonzero;stroke:none"
         id="path1526"
         inkscape:connector-curvature="0" />
    </g>
    <g
       id="g1528"
       transform="matrix(1.2500001,0,0,-1.2500001,762.65519,304.74033)">
      <path
         d="m 0,0 c 0,0.801 -0.651,1.453 -1.454,1.453 -0.803,0 -1.452,-0.652 -1.452,-1.453 0,-0.802 0.649,-1.453 1.452,-1.453 C -0.651,-1.453 0,-0.802 0,0"
         style="fill:#6ea4d7;fill-opacity:1;fill-rule:nonzero;stroke:none"
         id="path1530"
         inkscape:connector-curvature="0" />
    </g>
    <g
       id="g1532"
       transform="matrix(1.2500001,0,0,-1.2500001,770.69709,304.74033)">
      <path
         d="m 0,0 c 0,0.801 -0.65,1.453 -1.452,1.453 -0.804,0 -1.454,-0.652 -1.454,-1.453 0,-0.802 0.65,-1.453 1.454,-1.453 C -0.65,-1.453 0,-0.802 0,0"
         style="fill:#6ea4d7;fill-opacity:1;fill-rule:nonzero;stroke:none"
         id="path1534"
         inkscape:connector-curvature="0" />
    </g>
    <g
       id="g1536"
       transform="matrix(1.2500001,0,0,-1.2500001,746.56869,312.79453)">
      <path
         d="m 0,0 c 0,0.802 -0.652,1.453 -1.453,1.453 -0.803,0 -1.453,-0.651 -1.453,-1.453 0,-0.802 0.65,-1.453 1.453,-1.453 C -0.652,-1.453 0,-0.802 0,0"
         style="fill:#6ea4d7;fill-opacity:1;fill-rule:nonzero;stroke:none"
         id="path1538"
         inkscape:connector-curvature="0" />
    </g>
    <g
       id="g1540"
       transform="matrix(1.2500001,0,0,-1.2500001,754.61189,312.79453)">
      <path
         d="m 0,0 c 0,0.802 -0.651,1.453 -1.454,1.453 -0.801,0 -1.452,-0.651 -1.452,-1.453 0,-0.802 0.651,-1.453 1.452,-1.453 C -0.651,-1.453 0,-0.802 0,0"
         style="fill:#6ea4d7;fill-opacity:1;fill-rule:nonzero;stroke:none"
         id="path1542"
         inkscape:connector-curvature="0" />
    </g>
    <g
       id="g1544"
       transform="matrix(1.2500001,0,0,-1.2500001,762.65519,312.79453)">
      <path
         d="m 0,0 c 0,0.802 -0.651,1.453 -1.454,1.453 -0.803,0 -1.452,-0.651 -1.452,-1.453 0,-0.802 0.649,-1.453 1.452,-1.453 C -0.651,-1.453 0,-0.802 0,0"
         style="fill:#6ea4d7;fill-opacity:1;fill-rule:nonzero;stroke:none"
         id="path1546"
         inkscape:connector-curvature="0" />
    </g>
    <g
       id="g1548"
       transform="matrix(1.2500001,0,0,-1.2500001,774.80119,283.01423)">
      <path
         d="m 0,0 -6.545,0 -1.119,0 -27.545,0 c -3.566,0 -6.467,2.751 -6.467,6.315 0,3.565 2.901,6.39 6.467,6.39 2.297,0 4.44,-1.275 5.597,-3.265 l 4.971,2.866 c -0.92,1.584 -2.173,2.905 -3.64,3.915 1.016,4.961 5.418,8.7 10.676,8.7 6.009,0 10.898,-4.774 10.898,-10.781 C -6.707,11.889 -7.39,10 -8.684,8 l 6.508,0 c 0.619,1 1.005,3.011 1.151,4.661 0.338,0.055 0.68,0.027 1.025,0.027 3.566,0 6.467,-2.779 6.467,-6.343 C 6.467,2.78 3.566,0 0,0 m 0,18.377 c -0.507,0 -1.012,-0.036 -1.513,-0.098 -1.886,7.119 -8.385,12.383 -16.092,12.383 -7.706,0 -14.204,-5.264 -16.092,-12.383 -0.498,0.065 -1.003,0.098 -1.512,0.098 -6.736,0 -12.216,-5.456 -12.216,-12.189 0,-6.733 5.48,-12.188 12.216,-12.188 l 27.545,0 1.119,0 L 0,-6 c 6.736,0 12.216,5.455 12.216,12.188 0,6.733 -5.48,12.189 -12.216,12.189"
         style="fill:#2b2b2a;fill-opacity:1;fill-rule:nonzero;stroke:none"
         id="path1550"
         inkscape:connector-curvature="0" />
    </g>
  </g>
</svg>
