<?xml version="1.0" encoding="UTF-8" standalone="no"?>
<!-- Created with Inkscape (http://www.inkscape.org/) -->

<svg
   xmlns:dc="http://purl.org/dc/elements/1.1/"
   xmlns:cc="http://creativecommons.org/ns#"
   xmlns:rdf="http://www.w3.org/1999/02/22-rdf-syntax-ns#"
   xmlns:svg="http://www.w3.org/2000/svg"
   xmlns="http://www.w3.org/2000/svg"
   xmlns:sodipodi="http://sodipodi.sourceforge.net/DTD/sodipodi-0.dtd"
   xmlns:inkscape="http://www.inkscape.org/namespaces/inkscape"
   width="28.575001mm"
   height="28.575001mm"
   viewBox="0 0 101.25 101.25001"
   id="svg5798"
   version="1.1"
   inkscape:version="0.91 r13725"
   sodipodi:docname="Hail.svg">
  <defs
     id="defs5800" />
  <sodipodi:namedview
     id="base"
     pagecolor="#ffffff"
     bordercolor="#666666"
     borderopacity="1.0"
     inkscape:pageopacity="0.0"
     inkscape:pageshadow="2"
     inkscape:zoom="2.8"
     inkscape:cx="50.624998"
     inkscape:cy="50.625001"
     inkscape:document-units="px"
     inkscape:current-layer="layer1"
     showgrid="false"
     fit-margin-top="0"
     fit-margin-left="0"
     fit-margin-right="0"
     fit-margin-bottom="0"
     inkscape:window-width="1474"
     inkscape:window-height="841"
     inkscape:window-x="54"
     inkscape:window-y="-8"
     inkscape:window-maximized="1" />
  <metadata
     id="metadata5803">
    <rdf:RDF>
      <cc:Work
         rdf:about="">
        <dc:format>image/svg+xml</dc:format>
        <dc:type
           rdf:resource="http://purl.org/dc/dcmitype/StillImage" />
        <dc:title></dc:title>
      </cc:Work>
    </rdf:RDF>
  </metadata>
  <g
     inkscape:label="Layer 1"
     inkscape:groupmode="layer"
     id="layer1"
     transform="translate(-632.76365,-222.56781)">
    <g
       id="g1852"
       transform="matrix(1.25,0,0,-1.25,704.94615,248.93931)">
      <path
         d="m 0,0 c -0.508,0 -1.014,-0.035 -1.514,-0.097 -1.886,7.119 -8.384,12.383 -16.091,12.383 -7.707,0 -14.206,-5.264 -16.092,-12.383 -0.498,0.064 -1.004,0.097 -1.514,0.097 -6.734,0 -12.215,-5.719 -12.215,-12.451 0,-6.733 5.481,-12.452 12.215,-12.452 l 7.465,0 0,6 -7.465,0 c -3.566,0 -6.467,3.014 -6.467,6.579 0,3.564 2.901,6.521 6.467,6.521 2.297,0 4.441,-1.21 5.598,-3.2 l 4.972,2.899 c -0.921,1.584 -2.174,2.922 -3.642,3.932 1.017,4.961 5.418,8.708 10.678,8.708 6.009,0 10.898,-5.032 10.898,-11.04 0,-2.251 -0.684,-4.399 -1.978,-6.399 l 6.509,0 c 0.617,2 1.004,3.274 1.149,4.924 0.34,0.056 0.681,0.159 1.027,0.159 3.565,0 6.467,-2.977 6.467,-6.541 0,-3.564 -2.902,-6.542 -6.467,-6.542 l -7.746,0 0,-6 7.746,0 c 6.734,0 12.215,5.719 12.215,12.452 C 12.215,-5.719 6.734,0 0,0"
         style="fill:#2b2b2a;fill-opacity:1;fill-rule:nonzero;stroke:none"
         id="path1854"
         inkscape:connector-curvature="0" />
    </g>
    <g
       id="g1856"
       transform="matrix(1.25,0,0,-1.25,678.06505,274.07781)">
      <path
         d="M 0,0 7.78,-7.775"
         style="fill:#d8d8d8;fill-opacity:1;fill-rule:nonzero;stroke:none"
         id="path1858"
         inkscape:connector-curvature="0" />
    </g>
    <g
       id="g1860"
       transform="matrix(1.25,0,0,-1.25,681.14975,285.57811)">
      <path
         d="M 0,0 2.846,10.627"
         style="fill:#d8d8d8;fill-opacity:1;fill-rule:nonzero;stroke:none"
         id="path1862"
         inkscape:connector-curvature="0" />
    </g>
    <g
       id="g1864"
       transform="matrix(1.25,0,0,-1.25,689.57145,277.15521)">
      <path
         d="M 0,0 -10.629,-2.848"
         style="fill:#d8d8d8;fill-opacity:1;fill-rule:nonzero;stroke:none"
         id="path1866"
         inkscape:connector-curvature="0" />
    </g>
    <g
       id="g1868"
       transform="matrix(1.25,0,0,-1.25,689.80325,278.93381)">
      <path
         d="M 0,0 C 0,3.036 -2.462,5.498 -5.5,5.498 -8.538,5.498 -11,3.036 -11,0 c 0,-3.039 2.462,-5.502 5.5,-5.502 3.038,0 5.5,2.463 5.5,5.502"
         style="fill:#d8d8d8;fill-opacity:1;fill-rule:nonzero;stroke:none"
         id="path1870"
         inkscape:connector-curvature="0" />
    </g>
    <g
       id="g1872"
       transform="matrix(1.25,0,0,-1.25,661.99445,287.27181)">
      <path
         d="M 0,0 7.78,-7.777"
         style="fill:#d8d8d8;fill-opacity:1;fill-rule:nonzero;stroke:none"
         id="path1874"
         inkscape:connector-curvature="0" />
    </g>
    <g
       id="g1876"
       transform="matrix(1.25,0,0,-1.25,665.08165,298.77381)">
      <path
         d="M 0,0 2.845,10.626"
         style="fill:#d8d8d8;fill-opacity:1;fill-rule:nonzero;stroke:none"
         id="path1878"
         inkscape:connector-curvature="0" />
    </g>
    <g
       id="g1880"
       transform="matrix(1.25,0,0,-1.25,673.49955,290.35221)">
      <path
         d="M 0,0 -10.627,-2.848"
         style="fill:#d8d8d8;fill-opacity:1;fill-rule:nonzero;stroke:none"
         id="path1882"
         inkscape:connector-curvature="0" />
    </g>
    <g
       id="g1884"
       transform="matrix(1.25,0,0,-1.25,673.73275,292.13321)">
      <path
         d="M 0,0 C 0,3.038 -2.461,5.5 -5.5,5.5 -8.537,5.5 -11,3.038 -11,0 c 0,-3.038 2.463,-5.5 5.5,-5.5 3.039,0 5.5,2.462 5.5,5.5"
         style="fill:#d8d8d8;fill-opacity:1;fill-rule:nonzero;stroke:none"
         id="path1886"
         inkscape:connector-curvature="0" />
    </g>
  </g>
</svg>
