<?xml version="1.0" encoding="UTF-8" standalone="no"?>
<!-- Created with Inkscape (http://www.inkscape.org/) -->

<svg
   xmlns:dc="http://purl.org/dc/elements/1.1/"
   xmlns:cc="http://creativecommons.org/ns#"
   xmlns:rdf="http://www.w3.org/1999/02/22-rdf-syntax-ns#"
   xmlns:svg="http://www.w3.org/2000/svg"
   xmlns="http://www.w3.org/2000/svg"
   xmlns:sodipodi="http://sodipodi.sourceforge.net/DTD/sodipodi-0.dtd"
   xmlns:inkscape="http://www.inkscape.org/namespaces/inkscape"
   width="28.575001mm"
   height="28.575001mm"
   viewBox="0 0 101.25 101.25001"
   id="svg5798"
   version="1.1"
   inkscape:version="0.91 r13725"
   sodipodi:docname="Hail-shower-(day).svg">
  <defs
     id="defs5800" />
  <sodipodi:namedview
     id="base"
     pagecolor="#ffffff"
     bordercolor="#666666"
     borderopacity="1.0"
     inkscape:pageopacity="0.0"
     inkscape:pageshadow="2"
     inkscape:zoom="2.8"
     inkscape:cx="39.784651"
     inkscape:cy="56.517851"
     inkscape:document-units="px"
     inkscape:current-layer="layer1"
     showgrid="false"
     fit-margin-top="0"
     fit-margin-left="0"
     fit-margin-right="0"
     fit-margin-bottom="0"
     inkscape:window-width="1474"
     inkscape:window-height="841"
     inkscape:window-x="54"
     inkscape:window-y="-8"
     inkscape:window-maximized="1" />
  <metadata
     id="metadata5803">
    <rdf:RDF>
      <cc:Work
         rdf:about="">
        <dc:format>image/svg+xml</dc:format>
        <dc:type
           rdf:resource="http://purl.org/dc/dcmitype/StillImage" />
        <dc:title></dc:title>
      </cc:Work>
    </rdf:RDF>
  </metadata>
  <g
     inkscape:label="Layer 1"
     inkscape:groupmode="layer"
     id="layer1"
     transform="translate(-643.604,-228.46066)">
    <path
       d="m 706.104,244.71066 -6.25,0 0,-15 6.25,0 0,15 z"
       style="fill:#f8d452;fill-opacity:1;fill-rule:nonzero;stroke:none"
       id="path1624"
       inkscape:connector-curvature="0" />
    <path
       d="m 706.104,310.96066 -6.25,0 0,-15 6.25,0 0,15 z"
       style="fill:#f8d452;fill-opacity:1;fill-rule:nonzero;stroke:none"
       id="path1626"
       inkscape:connector-curvature="0" />
    <path
       d="m 728.604,267.21066 15,0 0,6.25 -15,0 0,-6.25 z"
       style="fill:#f8d452;fill-opacity:1;fill-rule:nonzero;stroke:none"
       id="path1628"
       inkscape:connector-curvature="0" />
    <g
       id="g1630"
       transform="matrix(1.25,0,0,-1.25,720.3718,307.37606)">
      <path
         d="M 0,0 -5.988,10.367 -1.01,13.241 4.979,2.873 0,0 Z"
         style="fill:#f8d452;fill-opacity:1;fill-rule:nonzero;stroke:none"
         id="path1632"
         inkscape:connector-curvature="0" />
    </g>
    <g
       id="g1634"
       transform="matrix(1.25,0,0,-1.25,727.2211,260.57126)">
      <path
         d="M 0,0 -2.874,4.976 7.496,10.963 10.37,5.986 0,0 Z"
         style="fill:#f8d452;fill-opacity:1;fill-rule:nonzero;stroke:none"
         id="path1636"
         inkscape:connector-curvature="0" />
    </g>
    <g
       id="g1638"
       transform="matrix(1.25,0,0,-1.25,736.5912,293.79206)">
      <path
         d="M 0,0 -10.372,5.984 -7.497,10.962 2.874,4.976 0,0 Z"
         style="fill:#f8d452;fill-opacity:1;fill-rule:nonzero;stroke:none"
         id="path1640"
         inkscape:connector-curvature="0" />
    </g>
    <g
       id="g1642"
       transform="matrix(1.25,0,0,-1.25,719.1108,249.83516)">
      <path
         d="M 0,0 -4.978,2.872 1.009,13.241 5.988,10.368 0,0 Z"
         style="fill:#f8d452;fill-opacity:1;fill-rule:nonzero;stroke:none"
         id="path1644"
         inkscape:connector-curvature="0" />
    </g>
    <g
       id="g1646"
       transform="matrix(1.25,0,0,-1.25,703.1258,255.06596)">
      <path
         d="m 0,0 c -0.508,0 -1.014,-0.035 -1.514,-0.098 -1.886,7.121 -8.384,12.384 -16.091,12.384 -7.707,0 -14.206,-5.263 -16.092,-12.384 -0.498,0.064 -1.004,0.098 -1.514,0.098 -6.734,0 -12.215,-5.626 -12.215,-12.358 0,-6.733 5.481,-12.358 12.215,-12.358 l 7.594,0 0,6 -7.594,0 c -3.565,0 -6.467,2.921 -6.467,6.485 0,3.564 2.902,6.474 6.467,6.474 2.297,0 4.441,-1.232 5.598,-3.223 l 4.972,2.888 c -0.921,1.584 -2.175,2.915 -3.642,3.926 1.017,4.96 5.418,8.704 10.678,8.704 6.009,0 10.898,-4.94 10.898,-10.947 0,-2.251 -0.684,-4.307 -1.978,-6.307 l 6.509,0 c 0.617,2 1.004,3.18 1.15,4.831 0.339,0.054 0.68,0.111 1.026,0.111 3.564,0 6.467,-2.906 6.467,-6.471 0,-3.564 -2.903,-6.471 -6.467,-6.471 l -7.617,0 0,-6 7.617,0 c 6.734,0 12.215,5.625 12.215,12.358 C 12.215,-5.626 6.734,0 0,0"
         style="fill:#2b2b2a;fill-opacity:1;fill-rule:nonzero;stroke:none"
         id="path1648"
         inkscape:connector-curvature="0" />
    </g>
    <g
       id="g1650"
       transform="matrix(1.25,0,0,-1.25,676.2446,280.20506)">
      <path
         d="M 0,0 7.78,-7.775"
         style="fill:#d8d8d8;fill-opacity:1;fill-rule:nonzero;stroke:none"
         id="path1652"
         inkscape:connector-curvature="0" />
    </g>
    <g
       id="g1654"
       transform="matrix(1.25,0,0,-1.25,679.3293,291.70526)">
      <path
         d="M 0,0 2.846,10.627"
         style="fill:#d8d8d8;fill-opacity:1;fill-rule:nonzero;stroke:none"
         id="path1656"
         inkscape:connector-curvature="0" />
    </g>
    <g
       id="g1658"
       transform="matrix(1.25,0,0,-1.25,687.751,283.28366)">
      <path
         d="M 0,0 -10.629,-2.847"
         style="fill:#d8d8d8;fill-opacity:1;fill-rule:nonzero;stroke:none"
         id="path1660"
         inkscape:connector-curvature="0" />
    </g>
    <g
       id="g1662"
       transform="matrix(1.25,0,0,-1.25,687.9829,285.06166)">
      <path
         d="M 0,0 C 0,3.037 -2.462,5.498 -5.5,5.498 -8.538,5.498 -11,3.037 -11,0 c 0,-3.039 2.462,-5.502 5.5,-5.502 3.038,0 5.5,2.463 5.5,5.502"
         style="fill:#d8d8d8;fill-opacity:1;fill-rule:nonzero;stroke:none"
         id="path1664"
         inkscape:connector-curvature="0" />
    </g>
    <g
       id="g1666"
       transform="matrix(1.25,0,0,-1.25,660.1753,293.39966)">
      <path
         d="M 0,0 7.778,-7.776"
         style="fill:#d8d8d8;fill-opacity:1;fill-rule:nonzero;stroke:none"
         id="path1668"
         inkscape:connector-curvature="0" />
    </g>
    <g
       id="g1670"
       transform="matrix(1.25,0,0,-1.25,663.2612,304.90106)">
      <path
         d="M 0,0 2.846,10.626"
         style="fill:#d8d8d8;fill-opacity:1;fill-rule:nonzero;stroke:none"
         id="path1672"
         inkscape:connector-curvature="0" />
    </g>
    <g
       id="g1674"
       transform="matrix(1.25,0,0,-1.25,671.6791,296.47896)">
      <path
         d="M 0,0 -10.627,-2.847"
         style="fill:#d8d8d8;fill-opacity:1;fill-rule:nonzero;stroke:none"
         id="path1676"
         inkscape:connector-curvature="0" />
    </g>
    <g
       id="g1678"
       transform="matrix(1.25,0,0,-1.25,671.9124,298.26106)">
      <path
         d="M 0,0 C 0,3.039 -2.461,5.5 -5.5,5.5 -8.537,5.5 -11,3.039 -11,0 c 0,-3.036 2.463,-5.5 5.5,-5.5 3.039,0 5.5,2.464 5.5,5.5"
         style="fill:#d8d8d8;fill-opacity:1;fill-rule:nonzero;stroke:none"
         id="path1680"
         inkscape:connector-curvature="0" />
    </g>
  </g>
</svg>
