<?xml version="1.0" encoding="UTF-8" standalone="no"?>
<!-- Created with Inkscape (http://www.inkscape.org/) -->

<svg
   xmlns:dc="http://purl.org/dc/elements/1.1/"
   xmlns:cc="http://creativecommons.org/ns#"
   xmlns:rdf="http://www.w3.org/1999/02/22-rdf-syntax-ns#"
   xmlns:svg="http://www.w3.org/2000/svg"
   xmlns="http://www.w3.org/2000/svg"
   xmlns:sodipodi="http://sodipodi.sourceforge.net/DTD/sodipodi-0.dtd"
   xmlns:inkscape="http://www.inkscape.org/namespaces/inkscape"
   width="28.574999mm"
   height="28.575001mm"
   viewBox="0 0 101.24999 101.25001"
   id="svg5798"
   version="1.1"
   inkscape:version="0.91 r13725"
   sodipodi:docname="Hail-shower-(night).svg">
  <defs
     id="defs5800" />
  <sodipodi:namedview
     id="base"
     pagecolor="#ffffff"
     bordercolor="#666666"
     borderopacity="1.0"
     inkscape:pageopacity="0.0"
     inkscape:pageshadow="2"
     inkscape:zoom="2.8"
     inkscape:cx="32.195358"
     inkscape:cy="31.785714"
     inkscape:document-units="px"
     inkscape:current-layer="layer1"
     showgrid="false"
     fit-margin-top="0"
     fit-margin-left="0"
     fit-margin-right="0"
     fit-margin-bottom="0"
     inkscape:window-width="1474"
     inkscape:window-height="841"
     inkscape:window-x="54"
     inkscape:window-y="-8"
     inkscape:window-maximized="1" />
  <metadata
     id="metadata5803">
    <rdf:RDF>
      <cc:Work
         rdf:about="">
        <dc:format>image/svg+xml</dc:format>
        <dc:type
           rdf:resource="http://purl.org/dc/dcmitype/StillImage" />
        <dc:title></dc:title>
      </cc:Work>
    </rdf:RDF>
  </metadata>
  <g
     inkscape:label="Layer 1"
     inkscape:groupmode="layer"
     id="layer1"
     transform="translate(-651.19329,-203.72852)">
    <g
       id="g1756"
       transform="matrix(1.2500001,0,0,-1.2500001,749.29129,240.36792)">
      <path
         d="m 0,0 c -9.789,0 -17.725,7.915 -17.725,17.678 0,4.032 1.357,7.749 3.637,10.724 -8.692,-1.108 -15.417,-8.495 -15.451,-17.458 7.966,-0.398 14.324,-6.988 14.324,-15.031 0,-0.801 -0.064,-1.588 -0.185,-2.354 1.158,-0.239 2.355,-0.363 3.584,-0.363 5.745,0 10.849,2.728 14.087,6.954 C 1.527,0.054 0.77,0 0,0"
         style="fill:#c8c7c7;fill-opacity:1;fill-rule:nonzero;stroke:none"
         id="path1758"
         inkscape:connector-curvature="0" />
    </g>
    <g
       id="g1760"
       transform="matrix(1.2500001,0,0,-1.2500001,711.41169,230.24702)">
      <path
         d="m 0,0 c -0.508,0 -1.013,-0.034 -1.513,-0.098 -1.886,7.106 -8.384,12.357 -16.091,12.357 -7.708,0 -14.206,-5.251 -16.092,-12.356 C -34.196,-0.034 -34.7,0 -35.21,0 c -6.735,0 -12.215,-5.676 -12.215,-12.394 0,-6.717 5.48,-12.391 12.215,-12.391 l 8.035,0 0,6 -8.035,0 c -3.564,0 -6.467,2.969 -6.467,6.526 0,3.557 2.903,6.487 6.467,6.487 2.297,0 4.441,-1.215 5.598,-3.201 l 4.971,2.888 c -0.921,1.582 -2.174,2.913 -3.641,3.922 1.017,4.948 5.418,8.686 10.678,8.686 6.009,0 10.897,-4.976 10.897,-10.97 0,-2.246 -0.685,-4.338 -1.978,-6.338 l 6.509,0 c 0.618,2 1.005,3.22 1.15,4.864 0.338,0.057 0.681,0.136 1.026,0.136 3.565,0 6.467,-2.942 6.467,-6.499 0,-3.557 -2.902,-6.501 -6.467,-6.501 l -7.175,0 0,-6 7.175,0 c 6.735,0 12.216,5.674 12.216,12.391 C 12.216,-5.676 6.735,0 0,0"
         style="fill:#2b2b2a;fill-opacity:1;fill-rule:nonzero;stroke:none"
         id="path1762"
         inkscape:connector-curvature="0" />
    </g>
    <g
       id="g1764"
       transform="matrix(1.2500001,0,0,-1.2500001,684.46699,255.23852)">
      <path
         d="M 0,0 7.779,-7.775"
         style="fill:#d8d8d8;fill-opacity:1;fill-rule:nonzero;stroke:none"
         id="path1766"
         inkscape:connector-curvature="0" />
    </g>
    <g
       id="g1768"
       transform="matrix(1.2500001,0,0,-1.2500001,687.55179,266.73882)">
      <path
         d="M 0,0 2.846,10.627"
         style="fill:#d8d8d8;fill-opacity:1;fill-rule:nonzero;stroke:none"
         id="path1770"
         inkscape:connector-curvature="0" />
    </g>
    <g
       id="g1772"
       transform="matrix(1.2500001,0,0,-1.2500001,695.97339,258.31592)">
      <path
         d="M 0,0 -10.629,-2.848"
         style="fill:#d8d8d8;fill-opacity:1;fill-rule:nonzero;stroke:none"
         id="path1774"
         inkscape:connector-curvature="0" />
    </g>
    <g
       id="g1776"
       transform="matrix(1.2500001,0,0,-1.2500001,696.20549,260.09452)">
      <path
         d="M 0,0 C 0,3.036 -2.462,5.498 -5.5,5.498 -8.538,5.498 -11,3.036 -11,0 c 0,-3.039 2.462,-5.502 5.5,-5.502 3.038,0 5.5,2.463 5.5,5.502"
         style="fill:#d8d8d8;fill-opacity:1;fill-rule:nonzero;stroke:none"
         id="path1778"
         inkscape:connector-curvature="0" />
    </g>
    <g
       id="g1780"
       transform="matrix(1.2500001,0,0,-1.2500001,668.39769,268.43252)">
      <path
         d="M 0,0 7.779,-7.777"
         style="fill:#d8d8d8;fill-opacity:1;fill-rule:nonzero;stroke:none"
         id="path1782"
         inkscape:connector-curvature="0" />
    </g>
    <g
       id="g1784"
       transform="matrix(1.2500001,0,0,-1.2500001,671.48369,279.93452)">
      <path
         d="M 0,0 2.846,10.626"
         style="fill:#d8d8d8;fill-opacity:1;fill-rule:nonzero;stroke:none"
         id="path1786"
         inkscape:connector-curvature="0" />
    </g>
    <g
       id="g1788"
       transform="matrix(1.2500001,0,0,-1.2500001,679.90169,271.51292)">
      <path
         d="M 0,0 -10.627,-2.848"
         style="fill:#d8d8d8;fill-opacity:1;fill-rule:nonzero;stroke:none"
         id="path1790"
         inkscape:connector-curvature="0" />
    </g>
    <g
       id="g1792"
       transform="matrix(1.2500001,0,0,-1.2500001,680.13479,273.29392)">
      <path
         d="M 0,0 C 0,3.038 -2.461,5.5 -5.5,5.5 -8.538,5.5 -11,3.038 -11,0 c 0,-3.038 2.462,-5.5 5.5,-5.5 3.039,0 5.5,2.462 5.5,5.5"
         style="fill:#d8d8d8;fill-opacity:1;fill-rule:nonzero;stroke:none"
         id="path1794"
         inkscape:connector-curvature="0" />
    </g>
  </g>
</svg>
