<?xml version="1.0" encoding="UTF-8" standalone="no"?>
<!-- Created with Inkscape (http://www.inkscape.org/) -->

<svg
   xmlns:dc="http://purl.org/dc/elements/1.1/"
   xmlns:cc="http://creativecommons.org/ns#"
   xmlns:rdf="http://www.w3.org/1999/02/22-rdf-syntax-ns#"
   xmlns:svg="http://www.w3.org/2000/svg"
   xmlns="http://www.w3.org/2000/svg"
   xmlns:sodipodi="http://sodipodi.sourceforge.net/DTD/sodipodi-0.dtd"
   xmlns:inkscape="http://www.inkscape.org/namespaces/inkscape"
   width="28.574999mm"
   height="28.575001mm"
   viewBox="0 0 101.24999 101.25001"
   id="svg5798"
   version="1.1"
   inkscape:version="0.91 r13725"
   sodipodi:docname="Heavy-snow.svg">
  <defs
     id="defs5800" />
  <sodipodi:namedview
     id="base"
     pagecolor="#ffffff"
     bordercolor="#666666"
     borderopacity="1.0"
     inkscape:pageopacity="0.0"
     inkscape:pageshadow="2"
     inkscape:zoom="2.8"
     inkscape:cx="38.214274"
     inkscape:cy="76.785719"
     inkscape:document-units="px"
     inkscape:current-layer="layer1"
     showgrid="false"
     fit-margin-top="0"
     fit-margin-left="0"
     fit-margin-right="0"
     fit-margin-bottom="0"
     inkscape:window-width="1474"
     inkscape:window-height="841"
     inkscape:window-x="54"
     inkscape:window-y="-8"
     inkscape:window-maximized="1" />
  <metadata
     id="metadata5803">
    <rdf:RDF>
      <cc:Work
         rdf:about="">
        <dc:format>image/svg+xml</dc:format>
        <dc:type
           rdf:resource="http://purl.org/dc/dcmitype/StillImage" />
        <dc:title></dc:title>
      </cc:Work>
    </rdf:RDF>
  </metadata>
  <g
     inkscape:label="Layer 1"
     inkscape:groupmode="layer"
     id="layer1"
     transform="translate(-550.5683,-303.99636)">
    <g
       id="g1010"
       transform="matrix(1.2500001,0,0,-1.2500001,622.6336,329.75124)">
      <path
         d="m 0,0 c -0.508,0 -1.012,-0.036 -1.514,-0.098 -1.886,7.119 -8.384,12.383 -16.091,12.383 -7.707,0 -14.206,-5.264 -16.092,-12.383 -0.498,0.064 -1.004,0.098 -1.514,0.098 -6.734,0 -12.215,-5.466 -12.215,-12.199 0,-6.734 5.481,-12.197 12.215,-12.197 l 7.559,0 0,6 -7.559,0 c -3.564,0 -6.467,2.76 -6.467,6.324 0,3.565 2.903,6.394 6.467,6.394 2.297,0 4.441,-1.272 5.598,-3.262 l 4.972,2.867 c -0.92,1.584 -2.173,2.905 -3.642,3.915 1.017,4.961 5.42,8.701 10.678,8.701 6.009,0 10.898,-4.783 10.898,-10.79 0,-2.252 -0.684,-4.149 -1.977,-6.149 l 6.508,0 c 0.619,1 1.004,3.02 1.151,4.671 0.338,0.054 0.679,0.03 1.025,0.03 3.566,0 6.467,-2.785 6.467,-6.35 0,-3.564 -2.901,-6.351 -6.467,-6.351 l -7.652,0 0,-6 7.652,0 c 6.736,0 12.215,5.463 12.215,12.197 C 12.215,-5.466 6.736,0 0,0"
         style="fill:#2b2b2a;fill-opacity:1;fill-rule:nonzero;stroke:none"
         id="path1012"
         inkscape:connector-curvature="0" />
    </g>
    <g
       id="g1014"
       transform="matrix(1.2500001,0,0,-1.2500001,605.2165,367.36299)">
      <path
         d="M 0,0 -9.032,9.031 -7.227,10.838 1.807,1.806 0,0 Z"
         style="fill:#d8d8d8;fill-opacity:1;fill-rule:nonzero;stroke:none"
         id="path1016"
         inkscape:connector-curvature="0" />
    </g>
    <g
       id="g1018"
       transform="matrix(1.2500001,0,0,-1.2500001,600.1763,368.71486)">
      <path
         d="M 0,0 -2.47,0.662 0.838,13 3.306,12.339 0,0 Z"
         style="fill:#d8d8d8;fill-opacity:1;fill-rule:nonzero;stroke:none"
         id="path1020"
         inkscape:connector-curvature="0" />
    </g>
    <g
       id="g1022"
       transform="matrix(1.2500001,0,0,-1.2500001,593.4002,364.19886)">
      <path
         d="M 0,0 -0.66,2.469 11.679,5.775 12.34,3.307 0,0 Z"
         style="fill:#d8d8d8;fill-opacity:1;fill-rule:nonzero;stroke:none"
         id="path1024"
         inkscape:connector-curvature="0" />
    </g>
    <g
       id="g1026"
       transform="matrix(1.2500001,0,0,-1.2500001,588.8519,380.00011)">
      <path
         d="M 0,0 -9.033,9.032 -7.229,10.838 1.806,1.806 0,0 Z"
         style="fill:#d8d8d8;fill-opacity:1;fill-rule:nonzero;stroke:none"
         id="path1028"
         inkscape:connector-curvature="0" />
    </g>
    <g
       id="g1030"
       transform="matrix(1.2500001,0,0,-1.2500001,583.8103,381.35099)">
      <path
         d="M 0,0 -2.469,0.661 0.838,13 3.305,12.339 0,0 Z"
         style="fill:#d8d8d8;fill-opacity:1;fill-rule:nonzero;stroke:none"
         id="path1032"
         inkscape:connector-curvature="0" />
    </g>
    <g
       id="g1034"
       transform="matrix(1.2500001,0,0,-1.2500001,577.0354,376.83499)">
      <path
         d="M 0,0 -0.661,2.468 11.678,5.774 12.339,3.306 0,0 Z"
         style="fill:#d8d8d8;fill-opacity:1;fill-rule:nonzero;stroke:none"
         id="path1036"
         inkscape:connector-curvature="0" />
    </g>
  </g>
</svg>
