<?xml version="1.0" encoding="UTF-8" standalone="no"?>
<!-- Created with Inkscape (http://www.inkscape.org/) -->

<svg
   xmlns:dc="http://purl.org/dc/elements/1.1/"
   xmlns:cc="http://creativecommons.org/ns#"
   xmlns:rdf="http://www.w3.org/1999/02/22-rdf-syntax-ns#"
   xmlns:svg="http://www.w3.org/2000/svg"
   xmlns="http://www.w3.org/2000/svg"
   xmlns:sodipodi="http://sodipodi.sourceforge.net/DTD/sodipodi-0.dtd"
   xmlns:inkscape="http://www.inkscape.org/namespaces/inkscape"
   width="28.575001mm"
   height="28.575001mm"
   viewBox="0 0 101.25 101.25001"
   id="svg5798"
   version="1.1"
   inkscape:version="0.91 r13725"
   sodipodi:docname="Heavy-snow-shower-(night).svg">
  <defs
     id="defs5800" />
  <sodipodi:namedview
     id="base"
     pagecolor="#ffffff"
     bordercolor="#666666"
     borderopacity="1.0"
     inkscape:pageopacity="0.0"
     inkscape:pageshadow="2"
     inkscape:zoom="2.8"
     inkscape:cx="74.196414"
     inkscape:cy="64.553576"
     inkscape:document-units="px"
     inkscape:current-layer="layer1"
     showgrid="false"
     fit-margin-top="0"
     fit-margin-left="0"
     fit-margin-right="0"
     fit-margin-bottom="0"
     inkscape:window-width="1474"
     inkscape:window-height="841"
     inkscape:window-x="54"
     inkscape:window-y="-8"
     inkscape:window-maximized="1" />
  <metadata
     id="metadata5803">
    <rdf:RDF>
      <cc:Work
         rdf:about="">
        <dc:format>image/svg+xml</dc:format>
        <dc:type
           rdf:resource="http://purl.org/dc/dcmitype/StillImage" />
        <dc:title></dc:title>
      </cc:Work>
    </rdf:RDF>
  </metadata>
  <g
     inkscape:label="Layer 1"
     inkscape:groupmode="layer"
     id="layer1"
     transform="translate(-514.58616,-291.76422)">
    <g
       id="g1082"
       transform="matrix(1.25,0,0,-1.25,612.42546,327.71747)">
      <path
         d="m 0,0 c -9.789,0 -17.725,7.915 -17.725,17.678 0,4.033 1.358,7.749 3.639,10.724 -8.693,-1.108 -15.418,-8.494 -15.453,-17.458 7.967,-0.398 14.326,-6.988 14.326,-15.031 0,-0.801 -0.064,-1.587 -0.186,-2.354 1.157,-0.239 2.356,-0.363 3.583,-0.363 5.746,0 10.849,2.728 14.087,6.954 C 1.528,0.054 0.771,0 0,0"
         style="fill:#c8c7c7;fill-opacity:1;fill-rule:nonzero;stroke:none"
         id="path1084"
         inkscape:connector-curvature="0" />
    </g>
    <g
       id="g1086"
       transform="matrix(1.25,0,0,-1.25,574.54706,317.59672)">
      <path
         d="m 0,0 c -0.508,0 -1.013,-0.034 -1.514,-0.097 -1.885,7.105 -8.385,12.356 -16.092,12.356 -7.706,0 -14.205,-5.251 -16.091,-12.356 C -34.195,-0.034 -34.7,0 -35.209,0 c -6.736,0 -12.217,-5.45 -12.217,-12.168 0,-6.718 5.481,-12.166 12.217,-12.166 l 7.24,0 0,6 -7.24,0 c -3.566,0 -6.467,2.744 -6.467,6.3 0,3.557 2.901,6.374 6.467,6.374 2.296,0 4.439,-1.27 5.596,-3.256 l 4.972,2.859 c -0.92,1.581 -2.174,2.9 -3.642,3.908 1.017,4.949 5.42,8.68 10.677,8.68 6.012,0 10.899,-4.755 10.899,-10.748 0,-2.247 -0.684,-4.117 -1.979,-6.117 l 6.51,0 c 0.619,1 1.005,2.995 1.15,4.64 0.339,0.056 0.68,0.022 1.026,0.022 3.565,0 6.467,-2.774 6.467,-6.331 0,-3.556 -2.902,-6.331 -6.467,-6.331 l -7.969,0 0,-6 7.969,0 c 6.735,0 12.215,5.448 12.215,12.166 C 12.215,-5.45 6.735,0 0,0"
         style="fill:#2b2b2a;fill-opacity:1;fill-rule:nonzero;stroke:none"
         id="path1088"
         inkscape:connector-curvature="0" />
    </g>
    <g
       id="g1090"
       transform="matrix(1.25,0,0,-1.25,557.15806,355.08022)">
      <path
         d="M 0,0 -9.032,9.031 -7.227,10.837 1.807,1.806 0,0 Z"
         style="fill:#d8d8d8;fill-opacity:1;fill-rule:nonzero;stroke:none"
         id="path1092"
         inkscape:connector-curvature="0" />
    </g>
    <g
       id="g1094"
       transform="matrix(1.25,0,0,-1.25,552.11776,356.43235)">
      <path
         d="M 0,0 -2.469,0.661 0.838,13 3.306,12.34 0,0 Z"
         style="fill:#d8d8d8;fill-opacity:1;fill-rule:nonzero;stroke:none"
         id="path1096"
         inkscape:connector-curvature="0" />
    </g>
    <g
       id="g1098"
       transform="matrix(1.25,0,0,-1.25,545.34276,351.91635)">
      <path
         d="M 0,0 -0.661,2.469 11.678,5.775 12.339,3.306 0,0 Z"
         style="fill:#d8d8d8;fill-opacity:1;fill-rule:nonzero;stroke:none"
         id="path1100"
         inkscape:connector-curvature="0" />
    </g>
    <g
       id="g1102"
       transform="matrix(1.25,0,0,-1.25,540.79206,367.71747)">
      <path
         d="M 0,0 -9.032,9.032 -7.227,10.838 1.807,1.806 0,0 Z"
         style="fill:#d8d8d8;fill-opacity:1;fill-rule:nonzero;stroke:none"
         id="path1104"
         inkscape:connector-curvature="0" />
    </g>
    <g
       id="g1106"
       transform="matrix(1.25,0,0,-1.25,535.75176,369.06835)">
      <path
         d="M 0,0 -2.469,0.661 0.838,13 3.306,12.339 0,0 Z"
         style="fill:#d8d8d8;fill-opacity:1;fill-rule:nonzero;stroke:none"
         id="path1108"
         inkscape:connector-curvature="0" />
    </g>
    <g
       id="g1110"
       transform="matrix(1.25,0,0,-1.25,528.97696,364.55235)">
      <path
         d="M 0,0 -0.661,2.468 11.678,5.774 12.339,3.306 0,0 Z"
         style="fill:#d8d8d8;fill-opacity:1;fill-rule:nonzero;stroke:none"
         id="path1112"
         inkscape:connector-curvature="0" />
    </g>
  </g>
</svg>
