<?xml version="1.0" encoding="UTF-8" standalone="no"?>
<!-- Created with Inkscape (http://www.inkscape.org/) -->

<svg
   xmlns:dc="http://purl.org/dc/elements/1.1/"
   xmlns:cc="http://creativecommons.org/ns#"
   xmlns:rdf="http://www.w3.org/1999/02/22-rdf-syntax-ns#"
   xmlns:svg="http://www.w3.org/2000/svg"
   xmlns="http://www.w3.org/2000/svg"
   xmlns:sodipodi="http://sodipodi.sourceforge.net/DTD/sodipodi-0.dtd"
   xmlns:inkscape="http://www.inkscape.org/namespaces/inkscape"
   width="28.575001mm"
   height="28.575001mm"
   viewBox="0 0 101.25 101.25001"
   id="svg5798"
   version="1.1"
   inkscape:version="0.91 r13725"
   sodipodi:docname="Heavy-rain-shower-(day).svg">
  <defs
     id="defs5800" />
  <sodipodi:namedview
     id="base"
     pagecolor="#ffffff"
     bordercolor="#666666"
     borderopacity="1.0"
     inkscape:pageopacity="0.0"
     inkscape:pageshadow="2"
     inkscape:zoom="2.8"
     inkscape:cx="-12.390453"
     inkscape:cy="26.696436"
     inkscape:document-units="px"
     inkscape:current-layer="layer1"
     showgrid="false"
     fit-margin-top="0"
     fit-margin-left="0"
     fit-margin-right="0"
     fit-margin-bottom="0"
     inkscape:window-width="1474"
     inkscape:window-height="841"
     inkscape:window-x="54"
     inkscape:window-y="-8"
     inkscape:window-maximized="1" />
  <metadata
     id="metadata5803">
    <rdf:RDF>
      <cc:Work
         rdf:about="">
        <dc:format>image/svg+xml</dc:format>
        <dc:type
           rdf:resource="http://purl.org/dc/dcmitype/StillImage" />
        <dc:title></dc:title>
      </cc:Work>
    </rdf:RDF>
  </metadata>
  <g
     inkscape:label="Layer 1"
     inkscape:groupmode="layer"
     id="layer1"
     transform="translate(-476.00679,-253.90707)">
    <path
       d="m 538.50679,268.90707 -6.25,0 0,-13.75 6.25,0 0,13.75 z"
       style="fill:#f8d452;fill-opacity:1;fill-rule:nonzero;stroke:none"
       id="path336"
       inkscape:connector-curvature="0" />
    <path
       d="m 538.50679,336.40707 -6.25,0 0,-15 6.25,0 0,15 z"
       style="fill:#f8d452;fill-opacity:1;fill-rule:nonzero;stroke:none"
       id="path338"
       inkscape:connector-curvature="0" />
    <path
       d="m 561.00679,291.40707 15,0 0,7.5 -15,0 0,-7.5 z"
       style="fill:#f8d452;fill-opacity:1;fill-rule:nonzero;stroke:none"
       id="path340"
       inkscape:connector-curvature="0" />
    <g
       id="g342"
       transform="matrix(1.25,0,0,-1.25,552.59489,332.31107)">
      <path
         d="M 0,0 -5.988,10.366 -1.01,13.24 4.979,2.872 0,0 Z"
         style="fill:#f8d452;fill-opacity:1;fill-rule:nonzero;stroke:none"
         id="path344"
         inkscape:connector-curvature="0" />
    </g>
    <g
       id="g346"
       transform="matrix(1.25,0,0,-1.25,559.44309,285.50757)">
      <path
         d="M 0,0 -2.872,4.976 7.496,10.962 10.371,5.986 0,0 Z"
         style="fill:#f8d452;fill-opacity:1;fill-rule:nonzero;stroke:none"
         id="path348"
         inkscape:connector-curvature="0" />
    </g>
    <g
       id="g350"
       transform="matrix(1.25,0,0,-1.25,568.81319,318.72657)">
      <path
         d="M 0,0 -10.371,5.983 -7.496,10.96 2.875,4.974 0,0 Z"
         style="fill:#f8d452;fill-opacity:1;fill-rule:nonzero;stroke:none"
         id="path352"
         inkscape:connector-curvature="0" />
    </g>
    <g
       id="g354"
       transform="matrix(1.25,0,0,-1.25,551.33269,274.77332)">
      <path
         d="M 0,0 -4.979,2.874 1.01,13.242 5.988,10.37 0,0 Z"
         style="fill:#f8d452;fill-opacity:1;fill-rule:nonzero;stroke:none"
         id="path356"
         inkscape:connector-curvature="0" />
    </g>
    <g
       id="g358"
       transform="matrix(1.25,0,0,-1.25,535.34629,280.0017)">
      <path
         d="m 0,0 c -0.507,0 -1.012,-0.036 -1.512,-0.098 -1.886,7.119 -8.386,12.383 -16.093,12.383 -7.706,0 -14.204,-5.264 -16.092,-12.383 -0.498,0.064 -1.002,0.098 -1.512,0.098 -6.736,0 -12.215,-5.33 -12.215,-12.063 0,-6.734 5.479,-12.061 12.215,-12.061 l 7.737,0 0,5 -7.737,0 c -3.566,0 -6.467,3.124 -6.467,6.688 0,3.565 2.901,6.576 6.467,6.576 2.297,0 4.441,-1.181 5.598,-3.171 l 4.97,2.913 c -0.92,1.584 -2.173,2.927 -3.64,3.938 1.017,4.961 5.418,8.712 10.676,8.712 6.01,0 10.898,-4.641 10.898,-10.648 0,-2.252 -0.682,-5.008 -1.977,-6.008 l 6.508,0 c 0.619,1 1.005,2.884 1.151,4.535 0.337,0.054 0.681,-0.037 1.025,-0.037 3.566,0 6.467,-3.184 6.467,-6.749 0,-3.564 -2.901,-6.749 -6.467,-6.749 l -7.472,0 0,-5 7.472,0 c 6.736,0 12.217,5.327 12.217,12.061 C 12.217,-5.33 6.736,0 0,0"
         style="fill:#2b2b2a;fill-opacity:1;fill-rule:nonzero;stroke:none"
         id="path360"
         inkscape:connector-curvature="0" />
    </g>
    <g
       id="g362"
       transform="matrix(1.25,0,0,-1.25,499.66279,329.3407)">
      <path
         d="M 0,0 C 0.008,0.068 0.014,0.137 0.018,0.208 L 1.002,11.58 -8.926,5.85 c -1.8,-1.034 -3.013,-2.973 -3.013,-5.198 0,-3.304 2.681,-5.984 5.988,-5.984 3.074,0 5.605,2.315 5.947,5.298 l 0,-0.001 L 0,0 Z"
         style="fill:#7eb7e1;fill-opacity:1;fill-rule:nonzero;stroke:none"
         id="path364"
         inkscape:connector-curvature="0" />
    </g>
    <g
       id="g366"
       transform="matrix(1.25,0,0,-1.25,520.17669,311.64782)">
      <path
         d="m 0,0 c 0.007,0.069 0.013,0.139 0.019,0.207 l 0.984,11.545 -9.93,-5.559 0.002,0 c -1.801,-1 -3.015,-3.143 -3.015,-5.368 0,-3.306 2.681,-6.072 5.988,-6.072 3.074,0 5.605,2.275 5.947,5.257 L -0.003,-0.014 0,0 Z"
         style="fill:#7eb7e1;fill-opacity:1;fill-rule:nonzero;stroke:none"
         id="path368"
         inkscape:connector-curvature="0" />
    </g>
  </g>
</svg>
