<?xml version="1.0" encoding="UTF-8" standalone="no"?>
<!-- Created with Inkscape (http://www.inkscape.org/) -->

<svg
   xmlns:dc="http://purl.org/dc/elements/1.1/"
   xmlns:cc="http://creativecommons.org/ns#"
   xmlns:rdf="http://www.w3.org/1999/02/22-rdf-syntax-ns#"
   xmlns:svg="http://www.w3.org/2000/svg"
   xmlns="http://www.w3.org/2000/svg"
   xmlns:sodipodi="http://sodipodi.sourceforge.net/DTD/sodipodi-0.dtd"
   xmlns:inkscape="http://www.inkscape.org/namespaces/inkscape"
   width="28.574999mm"
   height="28.575001mm"
   viewBox="0 0 101.24999 101.25001"
   id="svg5798"
   version="1.1"
   inkscape:version="0.91 r13725"
   sodipodi:docname="Heavy-rain-shower-(night).svg">
  <defs
     id="defs5800" />
  <sodipodi:namedview
     id="base"
     pagecolor="#ffffff"
     bordercolor="#666666"
     borderopacity="1.0"
     inkscape:pageopacity="0.0"
     inkscape:pageshadow="2"
     inkscape:zoom="2.8"
     inkscape:cx="-41.229742"
     inkscape:cy="35.000016"
     inkscape:document-units="px"
     inkscape:current-layer="layer1"
     showgrid="false"
     fit-margin-top="0"
     fit-margin-left="0"
     fit-margin-right="0"
     fit-margin-bottom="0"
     inkscape:window-width="1474"
     inkscape:window-height="841"
     inkscape:window-x="54"
     inkscape:window-y="-8"
     inkscape:window-maximized="1" />
  <metadata
     id="metadata5803">
    <rdf:RDF>
      <cc:Work
         rdf:about="">
        <dc:format>image/svg+xml</dc:format>
        <dc:type
           rdf:resource="http://purl.org/dc/dcmitype/StillImage" />
        <dc:title></dc:title>
      </cc:Work>
    </rdf:RDF>
  </metadata>
  <g
     inkscape:label="Layer 1"
     inkscape:groupmode="layer"
     id="layer1"
     transform="translate(-504.84607,-262.21065)">
    <g
       id="g596"
       transform="matrix(1.2500001,0,0,-1.2500001,528.61337,337.3829)">
      <path
         d="m 0,0 c 0.006,0.069 0.016,0.138 0.022,0.208 l 0.987,11.499 -9.928,-5.569 0.002,0 c -1.801,-1 -3.016,-3.116 -3.016,-5.335 0,-3.296 2.673,-6.046 5.979,-6.046 3.075,0 5.94,2.236 5.94,5.211 l 0,-0.003 L 0,0 Z"
         style="fill:#7eb7e1;fill-opacity:1;fill-rule:nonzero;stroke:none"
         id="path598"
         inkscape:connector-curvature="0" />
    </g>
    <g
       id="g600"
       transform="matrix(1.2500001,0,0,-1.2500001,548.86887,319.7289)">
      <path
         d="M 0,0 C 0.008,0.067 0.121,0.137 0.126,0.206 L 1.162,11.555 -8.74,5.838 -8.723,5.836 c -1.8,-1.029 -3.009,-2.965 -3.009,-5.185 0,-3.297 2.471,-5.97 5.778,-5.97 3.074,0 5.736,2.312 5.736,5.285 l 0,-0.001 L 0,0 Z"
         style="fill:#7eb7e1;fill-opacity:1;fill-rule:nonzero;stroke:none"
         id="path602"
         inkscape:connector-curvature="0" />
    </g>
    <g
       id="g604"
       transform="matrix(1.2500001,0,0,-1.2500001,602.18627,298.27653)">
      <path
         d="m 0,0 c -9.788,0 -17.725,7.914 -17.725,17.678 0,4.033 1.358,7.747 3.638,10.724 -8.692,-1.11 -15.418,-8.497 -15.451,-17.459 7.966,-0.398 14.325,-6.988 14.325,-15.031 0,-0.801 -0.064,-1.588 -0.187,-2.353 1.158,-0.239 2.357,-0.364 3.584,-0.364 5.745,0 10.849,2.728 14.087,6.955 C 1.526,0.052 0.77,0 0,0"
         style="fill:#c8c7c7;fill-opacity:1;fill-rule:nonzero;stroke:none"
         id="path606"
         inkscape:connector-curvature="0" />
    </g>
    <g
       id="g608"
       transform="matrix(1.2500001,0,0,-1.2500001,564.30667,288.1569)">
      <path
         d="M 0,0 C -0.507,0 -1.013,-0.033 -1.513,-0.098 -3.397,7.008 -9.897,12.26 -17.604,12.26 -25.312,12.26 -31.81,7.008 -33.696,-0.096 -34.194,-0.033 -34.701,0 -35.208,0 c -6.736,0 -12.217,-5.404 -12.217,-12.123 0,-6.717 5.481,-12.12 12.217,-12.12 l 7.64,0 0,6 -7.64,0 c -3.566,0 -6.467,2.698 -6.467,6.254 0,3.556 2.901,6.352 6.467,6.352 2.295,0 4.439,-1.281 5.596,-3.267 l 4.972,2.852 c -0.92,1.583 -2.173,2.898 -3.643,3.906 1.017,4.949 5.421,8.678 10.679,8.678 6.011,0 10.898,-4.711 10.898,-10.703 0,-2.246 -0.684,-5.072 -1.979,-6.072 l 6.51,0 c 0.619,1 1.004,2.949 1.151,4.595 0.337,0.055 0.679,-0.001 1.024,-0.001 3.564,0 6.467,-2.741 6.467,-6.298 0,-3.556 -2.903,-6.296 -6.467,-6.296 l -7.568,0 0,-6 7.568,0 c 6.734,0 12.215,5.403 12.215,12.12 C 12.215,-5.404 6.734,0 0,0"
         style="fill:#2b2b2a;fill-opacity:1;fill-rule:nonzero;stroke:none"
         id="path610"
         inkscape:connector-curvature="0" />
    </g>
  </g>
</svg>
