<?xml version="1.0" encoding="UTF-8" standalone="no"?>
<!-- Created with Inkscape (http://www.inkscape.org/) -->

<svg
   xmlns:dc="http://purl.org/dc/elements/1.1/"
   xmlns:cc="http://creativecommons.org/ns#"
   xmlns:rdf="http://www.w3.org/1999/02/22-rdf-syntax-ns#"
   xmlns:svg="http://www.w3.org/2000/svg"
   xmlns="http://www.w3.org/2000/svg"
   xmlns:sodipodi="http://sodipodi.sourceforge.net/DTD/sodipodi-0.dtd"
   xmlns:inkscape="http://www.inkscape.org/namespaces/inkscape"
   width="28.575001mm"
   height="28.575001mm"
   viewBox="0 0 101.25 101.25001"
   id="svg5798"
   version="1.1"
   inkscape:version="0.91 r13725"
   sodipodi:docname="Heavy-snow-shower-(day).svg">
  <defs
     id="defs5800" />
  <sodipodi:namedview
     id="base"
     pagecolor="#ffffff"
     bordercolor="#666666"
     borderopacity="1.0"
     inkscape:pageopacity="0.0"
     inkscape:pageshadow="2"
     inkscape:zoom="2.8"
     inkscape:cx="89.374995"
     inkscape:cy="73.303578"
     inkscape:document-units="px"
     inkscape:current-layer="layer1"
     showgrid="false"
     fit-margin-top="0"
     fit-margin-left="0"
     fit-margin-right="0"
     fit-margin-bottom="0"
     inkscape:window-width="1474"
     inkscape:window-height="841"
     inkscape:window-x="54"
     inkscape:window-y="-8"
     inkscape:window-maximized="1" />
  <metadata
     id="metadata5803">
    <rdf:RDF>
      <cc:Work
         rdf:about="">
        <dc:format>image/svg+xml</dc:format>
        <dc:type
           rdf:resource="http://purl.org/dc/dcmitype/StillImage" />
        <dc:title></dc:title>
      </cc:Work>
    </rdf:RDF>
  </metadata>
  <g
     inkscape:label="Layer 1"
     inkscape:groupmode="layer"
     id="layer1"
     transform="translate(-499.40758,-300.51422)">
    <path
       d="m 563.15758,315.51422 -6.25,0 0,-15 6.25,0 0,15 z"
       style="fill:#f8d452;fill-opacity:1;fill-rule:nonzero;stroke:none"
       id="path932"
       inkscape:connector-curvature="0" />
    <path
       d="m 563.15758,381.76422 -6.25,0 0,-15 6.25,0 0,15 z"
       style="fill:#f8d452;fill-opacity:1;fill-rule:nonzero;stroke:none"
       id="path934"
       inkscape:connector-curvature="0" />
    <path
       d="m 585.65758,338.01422 15,0 0,7.5 -15,0 0,-7.5 z"
       style="fill:#f8d452;fill-opacity:1;fill-rule:nonzero;stroke:none"
       id="path936"
       inkscape:connector-curvature="0" />
    <g
       id="g938"
       transform="matrix(1.25,0,0,-1.25,577.18588,378.58485)">
      <path
         d="M 0,0 -5.988,10.368 -1.01,13.241 4.979,2.874 0,0 Z"
         style="fill:#f8d452;fill-opacity:1;fill-rule:nonzero;stroke:none"
         id="path940"
         inkscape:connector-curvature="0" />
    </g>
    <g
       id="g942"
       transform="matrix(1.25,0,0,-1.25,584.03398,331.77997)">
      <path
         d="M 0,0 -2.873,4.977 7.496,10.962 10.371,5.986 0,0 Z"
         style="fill:#f8d452;fill-opacity:1;fill-rule:nonzero;stroke:none"
         id="path944"
         inkscape:connector-curvature="0" />
    </g>
    <g
       id="g946"
       transform="matrix(1.25,0,0,-1.25,593.40408,365.00085)">
      <path
         d="M 0,0 -10.371,5.985 -7.496,10.962 2.875,4.975 0,0 Z"
         style="fill:#f8d452;fill-opacity:1;fill-rule:nonzero;stroke:none"
         id="path948"
         inkscape:connector-curvature="0" />
    </g>
    <g
       id="g950"
       transform="matrix(1.25,0,0,-1.25,575.92358,321.04572)">
      <path
         d="M 0,0 -4.979,2.874 1.01,13.242 5.988,10.37 0,0 Z"
         style="fill:#f8d452;fill-opacity:1;fill-rule:nonzero;stroke:none"
         id="path952"
         inkscape:connector-curvature="0" />
    </g>
    <g
       id="g954"
       transform="matrix(1.25,0,0,-1.25,559.93718,326.27522)">
      <path
         d="m 0,0 c -0.506,0 -1.012,-0.035 -1.512,-0.097 -1.886,7.119 -8.386,12.382 -16.093,12.382 -7.705,0 -14.204,-5.263 -16.09,-12.382 -0.498,0.064 -1.004,0.097 -1.514,0.097 -6.734,0 -12.215,-5.463 -12.215,-12.196 0,-6.734 5.481,-12.196 12.215,-12.196 l 7.785,0 0,6 -7.785,0 c -3.566,0 -6.467,2.759 -6.467,6.323 0,3.565 2.901,6.393 6.467,6.393 2.297,0 4.441,-1.273 5.598,-3.263 l 4.972,2.866 c -0.921,1.585 -2.175,2.906 -3.642,3.916 1.017,4.962 5.418,8.701 10.676,8.701 6.009,0 10.898,-4.78 10.898,-10.788 0,-2.252 -0.682,-4.148 -1.977,-6.148 l 6.508,0 c 0.619,1 1.006,3.018 1.151,4.669 0.338,0.055 0.681,0.03 1.025,0.03 3.566,0 6.467,-2.784 6.467,-6.349 0,-3.564 -2.901,-6.35 -6.467,-6.35 l -7.424,0 0,-6 7.424,0 c 6.736,0 12.217,5.462 12.217,12.196 C 12.217,-5.463 6.736,0 0,0"
         style="fill:#2b2b2a;fill-opacity:1;fill-rule:nonzero;stroke:none"
         id="path956"
         inkscape:connector-curvature="0" />
    </g>
    <g
       id="g958"
       transform="matrix(1.25,0,0,-1.25,542.52148,363.88572)">
      <path
         d="M 0,0 -9.032,9.031 -7.227,10.837 1.807,1.805 0,0 Z"
         style="fill:#d8d8d8;fill-opacity:1;fill-rule:nonzero;stroke:none"
         id="path960"
         inkscape:connector-curvature="0" />
    </g>
    <g
       id="g962"
       transform="matrix(1.25,0,0,-1.25,537.48118,365.2371)">
      <path
         d="M 0,0 -2.469,0.661 0.838,13 3.306,12.339 0,0 Z"
         style="fill:#d8d8d8;fill-opacity:1;fill-rule:nonzero;stroke:none"
         id="path964"
         inkscape:connector-curvature="0" />
    </g>
    <g
       id="g966"
       transform="matrix(1.25,0,0,-1.25,530.70633,360.72222)">
      <path
         d="M 0,0 -0.661,2.469 11.678,5.775 12.339,3.307 0,0 Z"
         style="fill:#d8d8d8;fill-opacity:1;fill-rule:nonzero;stroke:none"
         id="path968"
         inkscape:connector-curvature="0" />
    </g>
    <g
       id="g970"
       transform="matrix(1.25,0,0,-1.25,526.15546,376.52285)">
      <path
         d="M 0,0 -9.032,9.031 -7.227,10.838 1.807,1.806 0,0 Z"
         style="fill:#d8d8d8;fill-opacity:1;fill-rule:nonzero;stroke:none"
         id="path972"
         inkscape:connector-curvature="0" />
    </g>
    <g
       id="g974"
       transform="matrix(1.25,0,0,-1.25,521.1152,377.87372)">
      <path
         d="M 0,0 -2.469,0.661 0.838,13 3.306,12.338 0,0 Z"
         style="fill:#d8d8d8;fill-opacity:1;fill-rule:nonzero;stroke:none"
         id="path976"
         inkscape:connector-curvature="0" />
    </g>
    <g
       id="g978"
       transform="matrix(1.25,0,0,-1.25,514.34033,373.35897)">
      <path
         d="M 0,0 -0.661,2.469 11.678,5.775 12.339,3.307 0,0 Z"
         style="fill:#d8d8d8;fill-opacity:1;fill-rule:nonzero;stroke:none"
         id="path980"
         inkscape:connector-curvature="0" />
    </g>
    <g
       id="g982"
       transform="matrix(1.25,0,0,-1.25,542.52148,363.88572)">
      <path
         d="M 0,0 -9.032,9.031 -7.227,10.837 1.807,1.805 0,0 Z"
         style="fill:#d8d8d8;fill-opacity:1;fill-rule:nonzero;stroke:none"
         id="path984"
         inkscape:connector-curvature="0" />
    </g>
    <g
       id="g986"
       transform="matrix(1.25,0,0,-1.25,537.48118,365.2371)">
      <path
         d="M 0,0 -2.469,0.661 0.838,13 3.306,12.339 0,0 Z"
         style="fill:#d8d8d8;fill-opacity:1;fill-rule:nonzero;stroke:none"
         id="path988"
         inkscape:connector-curvature="0" />
    </g>
    <g
       id="g990"
       transform="matrix(1.25,0,0,-1.25,530.70633,360.72222)">
      <path
         d="M 0,0 -0.661,2.469 11.678,5.775 12.339,3.307 0,0 Z"
         style="fill:#d8d8d8;fill-opacity:1;fill-rule:nonzero;stroke:none"
         id="path992"
         inkscape:connector-curvature="0" />
    </g>
  </g>
</svg>
