<?xml version="1.0" encoding="UTF-8" standalone="no"?>
<svg
   xmlns:dc="http://purl.org/dc/elements/1.1/"
   xmlns:cc="http://creativecommons.org/ns#"
   xmlns:rdf="http://www.w3.org/1999/02/22-rdf-syntax-ns#"
   xmlns:svg="http://www.w3.org/2000/svg"
   xmlns="http://www.w3.org/2000/svg"
   xmlns:sodipodi="http://sodipodi.sourceforge.net/DTD/sodipodi-0.dtd"
   xmlns:inkscape="http://www.inkscape.org/namespaces/inkscape"
   version="1.1"
   x="0px"
   y="0px"
   viewBox="0 0 91.640999 85.149002"
   enable-background="new 0 0 100 100"
   xml:space="preserve"
   id="svg2"
   inkscape:version="0.91 r13725"
   sodipodi:docname="Light rain.svg"
   width="91.640999"
   height="85.149002"><metadata
     id="metadata22"><rdf:RDF><cc:Work
         rdf:about=""><dc:format>image/svg+xml</dc:format><dc:type
           rdf:resource="http://purl.org/dc/dcmitype/StillImage" /><dc:title></dc:title></cc:Work></rdf:RDF></metadata><defs
     id="defs20" /><sodipodi:namedview
     pagecolor="#ffffff"
     bordercolor="#666666"
     borderopacity="1"
     objecttolerance="10"
     gridtolerance="10"
     guidetolerance="10"
     inkscape:pageopacity="0"
     inkscape:pageshadow="2"
     inkscape:window-width="845"
     inkscape:window-height="480"
     id="namedview18"
     showgrid="false"
     fit-margin-top="0"
     fit-margin-left="0"
     fit-margin-right="0"
     fit-margin-bottom="0"
     inkscape:zoom="1.888"
     inkscape:cx="58.532864"
     inkscape:cy="31.328"
     inkscape:window-x="321"
     inkscape:window-y="68"
     inkscape:window-maximized="0"
     inkscape:current-layer="svg2" /><g
     id="g4"
     transform="translate(-4.179,-8.679)"><path
       stroke-miterlimit="10"
       d="m 83.241,32.161 c -0.061,0 -0.119,0.008 -0.179,0.009 0,-0.003 0,-0.006 0,-0.009 0,-12.141 -9.842,-21.982 -21.982,-21.982 -8.866,0 -16.486,5.26 -19.962,12.819 -2.312,-1.22 -4.942,-1.918 -7.739,-1.918 -7.251,0 -13.401,4.652 -15.672,11.128 -0.313,-0.026 -0.628,-0.047 -0.948,-0.047 -6.12,0 -11.08,4.96 -11.08,11.08 0,6.119 4.96,11.08 11.08,11.08 l 66.481,0 c 6.12,0 11.08,-4.961 11.08,-11.08 0.001,-6.12 -4.96,-11.08 -11.079,-11.08 z"
       id="path6"
       inkscape:connector-curvature="0"
       style="fill:none;stroke:#000000;stroke-width:3;stroke-linecap:round;stroke-linejoin:round;stroke-miterlimit:10" /><g
       id="g8"><path
         stroke-miterlimit="10"
         d="m 59.135,83.193 c 0,5.045 -4.09,9.135 -9.135,9.135 -5.045,0 -9.135,-4.09 -9.135,-9.135 0,-5.045 0,-5.045 9.135,-20.208 9.135,15.163 9.135,15.163 9.135,20.208 z"
         id="path10"
         inkscape:connector-curvature="0"
         style="fill:none;stroke:#000000;stroke-width:3;stroke-linecap:round;stroke-linejoin:round;stroke-miterlimit:10" /><path
         stroke-miterlimit="10"
         d="m 44.513,82.564 c 0,3.102 2.514,5.616 5.617,5.616"
         id="path12"
         inkscape:connector-curvature="0"
         style="fill:none;stroke:#000000;stroke-width:3;stroke-linecap:round;stroke-linejoin:round;stroke-miterlimit:10" /></g></g></svg>