<?xml version="1.0" encoding="UTF-8" standalone="no"?>
<!-- Created with Inkscape (http://www.inkscape.org/) -->

<svg
   xmlns:dc="http://purl.org/dc/elements/1.1/"
   xmlns:cc="http://creativecommons.org/ns#"
   xmlns:rdf="http://www.w3.org/1999/02/22-rdf-syntax-ns#"
   xmlns:svg="http://www.w3.org/2000/svg"
   xmlns="http://www.w3.org/2000/svg"
   xmlns:sodipodi="http://sodipodi.sourceforge.net/DTD/sodipodi-0.dtd"
   xmlns:inkscape="http://www.inkscape.org/namespaces/inkscape"
   width="28.575001mm"
   height="28.575001mm"
   viewBox="0 0 101.25 101.25001"
   id="svg5798"
   version="1.1"
   inkscape:version="0.91 r13725"
   sodipodi:docname="Light-snow-shower-(day).svg">
  <defs
     id="defs5800" />
  <sodipodi:namedview
     id="base"
     pagecolor="#ffffff"
     bordercolor="#666666"
     borderopacity="1.0"
     inkscape:pageopacity="0.0"
     inkscape:pageshadow="2"
     inkscape:zoom="2.8"
     inkscape:cx="50.320377"
     inkscape:cy="30.624993"
     inkscape:document-units="px"
     inkscape:current-layer="layer1"
     showgrid="false"
     fit-margin-top="0"
     fit-margin-left="0"
     fit-margin-right="0"
     fit-margin-bottom="0"
     inkscape:window-width="1474"
     inkscape:window-height="841"
     inkscape:window-x="54"
     inkscape:window-y="-8"
     inkscape:window-maximized="1" />
  <metadata
     id="metadata5803">
    <rdf:RDF>
      <cc:Work
         rdf:about="">
        <dc:format>image/svg+xml</dc:format>
        <dc:type
           rdf:resource="http://purl.org/dc/dcmitype/StillImage" />
        <dc:title></dc:title>
      </cc:Work>
    </rdf:RDF>
  </metadata>
  <g
     inkscape:label="Layer 1"
     inkscape:groupmode="layer"
     id="layer1"
     transform="translate(-538.15757,-277.83565)">
    <path
       d="m 601.90757,292.83565 -7.5,0 0,-15 7.5,0 0,15 z"
       style="fill:#f8d452;fill-opacity:1;fill-rule:nonzero;stroke:none"
       id="path1280"
       inkscape:connector-curvature="0" />
    <path
       d="m 601.90757,359.08565 -7.5,0 0,-15 7.5,0 0,15 z"
       style="fill:#f8d452;fill-opacity:1;fill-rule:nonzero;stroke:none"
       id="path1282"
       inkscape:connector-curvature="0" />
    <path
       d="m 623.15757,315.33565 15,0 0,7.5 -15,0 0,-7.5 z"
       style="fill:#f8d452;fill-opacity:1;fill-rule:nonzero;stroke:none"
       id="path1284"
       inkscape:connector-curvature="0" />
    <path
       inkscape:connector-curvature="0"
       id="path1288"
       style="fill:#f8d452;fill-opacity:1;fill-rule:nonzero;stroke:none"
       d="m 614.99332,355.89628 -7.485,-12.95875 6.2225,-3.59125 7.48625,12.95875 -6.22375,3.59125 z" />
    <path
       inkscape:connector-curvature="0"
       id="path1292"
       style="fill:#f8d452;fill-opacity:1;fill-rule:nonzero;stroke:none"
       d="m 621.8417,309.09228 -3.59375,-6.22 12.96375,-7.48375 3.5925,6.22125 -12.9625,7.4825 z" />
    <path
       inkscape:connector-curvature="0"
       id="path1296"
       style="fill:#f8d452;fill-opacity:1;fill-rule:nonzero;stroke:none"
       d="m 631.21182,342.3129 -12.96375,-7.48 3.59375,-6.22125 12.9625,7.4825 -3.5925,6.21875 z" />
    <path
       inkscape:connector-curvature="0"
       id="path1300"
       style="fill:#f8d452;fill-opacity:1;fill-rule:nonzero;stroke:none"
       d="m 613.73107,298.35678 -6.2225,-3.59125 7.485,-12.96125 6.22375,3.5925 -7.48625,12.96 z" />
    <path
       inkscape:connector-curvature="0"
       id="path1304"
       style="fill:#2b2b2a;fill-opacity:1;fill-rule:nonzero;stroke:none"
       d="m 597.74469,303.58815 c -0.635,0 -1.265,0.0425 -1.8925,0.12125 -2.3575,-8.89875 -10.48,-15.47875 -20.11375,-15.47875 -9.63375,0 -17.75625,6.58 -20.115,15.47875 -0.6225,-0.0813 -1.255,-0.12125 -1.8925,-0.12125 -8.4175,0 -15.26875,6.83375 -15.26875,15.24875 0,8.4175 6.85125,15.24875 15.26875,15.24875 l 9.42625,0 0,-7.5 -9.42625,0 c -4.455,0 -8.08375,-3.4525 -8.08375,-7.9075 0,-4.455 3.62875,-7.99125 8.08375,-7.99125 2.87125,0 5.55125,1.58625 6.9975,4.075 l 6.215,-3.58375 c -1.14875,-1.98 -2.71625,-3.6325 -4.5525,-4.895 1.27125,-6.2 6.775,-10.875 13.3475,-10.875 7.51125,0 13.6225,5.97875 13.6225,13.48875 0,2.815 -0.855,5.18875 -2.47125,7.68875 l 8.135,0 c 0.77375,-1.25 1.255,-3.7775 1.43875,-5.83875 0.4225,-0.07 0.84875,-0.0387 1.28125,-0.0387 4.45751,0 8.08376,3.4825 8.08376,7.93625 0,4.45625 -3.62625,7.94125 -8.08376,7.94125 l -9.5875,0 0,7.5 9.5875,0 c 8.42001,0 15.26876,-6.83125 15.26876,-15.24875 0,-8.415 -6.84875,-15.24875 -15.26876,-15.24875" />
    <path
       inkscape:connector-curvature="0"
       id="path1308"
       style="fill:#d8d8d8;fill-opacity:1;fill-rule:nonzero;stroke:none"
       d="m 580.32769,341.1984 -11.29,-11.28875 2.2575,-2.25875 11.29125,11.29125 -2.25875,2.25625 z" />
    <path
       inkscape:connector-curvature="0"
       id="path1312"
       style="fill:#d8d8d8;fill-opacity:1;fill-rule:nonzero;stroke:none"
       d="m 575.28744,342.54928 -3.08625,-0.825 4.13375,-15.425 3.085,0.82625 -4.1325,15.42375 z" />
    <path
       inkscape:connector-curvature="0"
       id="path1316"
       style="fill:#d8d8d8;fill-opacity:1;fill-rule:nonzero;stroke:none"
       d="m 568.51257,338.03515 -0.82625,-3.08625 15.42375,-4.13375 0.82625,3.085 -15.42375,4.135 z" />
  </g>
</svg>
