<?xml version="1.0" encoding="UTF-8" standalone="no"?>
<!-- Created with Inkscape (http://www.inkscape.org/) -->

<svg
   xmlns:dc="http://purl.org/dc/elements/1.1/"
   xmlns:cc="http://creativecommons.org/ns#"
   xmlns:rdf="http://www.w3.org/1999/02/22-rdf-syntax-ns#"
   xmlns:svg="http://www.w3.org/2000/svg"
   xmlns="http://www.w3.org/2000/svg"
   xmlns:sodipodi="http://sodipodi.sourceforge.net/DTD/sodipodi-0.dtd"
   xmlns:inkscape="http://www.inkscape.org/namespaces/inkscape"
   width="28.574999mm"
   height="28.575001mm"
   viewBox="0 0 101.24999 101.25001"
   id="svg5798"
   version="1.1"
   inkscape:version="0.91 r13725"
   sodipodi:docname="Light-rain-shower-(day).svg">
  <defs
     id="defs5800" />
  <sodipodi:namedview
     id="base"
     pagecolor="#ffffff"
     bordercolor="#666666"
     borderopacity="1.0"
     inkscape:pageopacity="0.0"
     inkscape:pageshadow="2"
     inkscape:zoom="2.8"
     inkscape:cx="26.249983"
     inkscape:cy="65.535717"
     inkscape:document-units="px"
     inkscape:current-layer="layer1"
     showgrid="false"
     fit-margin-top="0"
     fit-margin-left="0"
     fit-margin-right="0"
     fit-margin-bottom="0"
     inkscape:window-width="1474"
     inkscape:window-height="841"
     inkscape:window-x="54"
     inkscape:window-y="-8"
     inkscape:window-maximized="1" />
  <metadata
     id="metadata5803">
    <rdf:RDF>
      <cc:Work
         rdf:about="">
        <dc:format>image/svg+xml</dc:format>
        <dc:type
           rdf:resource="http://purl.org/dc/dcmitype/StillImage" />
        <dc:title></dc:title>
      </cc:Work>
    </rdf:RDF>
  </metadata>
  <g
     inkscape:label="Layer 1"
     inkscape:groupmode="layer"
     id="layer1"
     transform="translate(-562.53259,-292.74636)">
    <path
       d="m 626.28259,308.99636 -6.25,0 0,-15 6.25,0 0,15 z"
       style="fill:#f8d452;fill-opacity:1;fill-rule:nonzero;stroke:none"
       id="path1164"
       inkscape:connector-curvature="0" />
    <path
       d="m 626.28259,375.24636 -6.25,0 0,-15 6.25,0 0,15 z"
       style="fill:#f8d452;fill-opacity:1;fill-rule:nonzero;stroke:none"
       id="path1166"
       inkscape:connector-curvature="0" />
    <path
       d="m 648.78259,330.24636 15,0 0,7.5 -15,0 0,-7.5 z"
       style="fill:#f8d452;fill-opacity:1;fill-rule:nonzero;stroke:none"
       id="path1168"
       inkscape:connector-curvature="0" />
    <g
       id="g1170"
       transform="matrix(1.2500001,0,0,-1.2500001,640.26799,371.34249)">
      <path
         d="M 0,0 -5.989,10.367 -1.01,13.24 4.979,2.873 0,0 Z"
         style="fill:#f8d452;fill-opacity:1;fill-rule:nonzero;stroke:none"
         id="path1172"
         inkscape:connector-curvature="0" />
    </g>
    <g
       id="g1174"
       transform="matrix(1.2500001,0,0,-1.2500001,647.11739,324.53886)">
      <path
         d="M 0,0 -2.875,4.977 7.495,10.963 10.369,5.987 0,0 Z"
         style="fill:#f8d452;fill-opacity:1;fill-rule:nonzero;stroke:none"
         id="path1176"
         inkscape:connector-curvature="0" />
    </g>
    <g
       id="g1178"
       transform="matrix(1.2500001,0,0,-1.2500001,656.48639,357.75911)">
      <path
         d="M 0,0 -10.37,5.985 -7.495,10.962 2.874,4.976 0,0 Z"
         style="fill:#f8d452;fill-opacity:1;fill-rule:nonzero;stroke:none"
         id="path1180"
         inkscape:connector-curvature="0" />
    </g>
    <g
       id="g1182"
       transform="matrix(1.2500001,0,0,-1.2500001,639.00589,313.80199)">
      <path
         d="M 0,0 -4.979,2.872 1.01,13.242 5.989,10.368 0,0 Z"
         style="fill:#f8d452;fill-opacity:1;fill-rule:nonzero;stroke:none"
         id="path1184"
         inkscape:connector-curvature="0" />
    </g>
    <g
       id="g1186"
       transform="matrix(1.2500001,0,0,-1.2500001,623.01949,319.03286)">
      <path
         d="m 0,0 c -0.507,0 -1.012,-0.035 -1.513,-0.098 -1.886,7.121 -8.385,12.383 -16.093,12.383 -7.705,0 -14.203,-5.262 -16.091,-12.383 C -34.195,-0.033 -34.7,0 -35.209,0 c -6.736,0 -12.216,-5.253 -12.216,-11.986 0,-6.733 5.48,-11.985 12.216,-11.985 l 7.819,0 0,5 -7.819,0 c -3.566,0 -6.467,3.048 -6.467,6.612 0,3.565 2.901,6.538 6.467,6.538 2.297,0 4.44,-1.2 5.597,-3.19 l 4.971,2.902 c -0.92,1.584 -2.173,2.924 -3.64,3.935 1.016,4.961 5.418,8.709 10.675,8.709 6.01,0 10.898,-5.066 10.898,-11.074 0,-2.25 -0.682,-4.432 -1.976,-6.432 l 6.508,0 c 0.62,2 1.005,3.308 1.151,4.958 0.337,0.055 0.68,0.175 1.025,0.175 3.566,0 6.467,-3.001 6.467,-6.566 0,-3.564 -2.901,-6.567 -6.467,-6.567 l -7.39,0 0,-5 7.39,0 c 6.737,0 12.216,5.252 12.216,11.985 C 12.216,-5.253 6.737,0 0,0"
         style="fill:#2b2b2a;fill-opacity:1;fill-rule:nonzero;stroke:none"
         id="path1188"
         inkscape:connector-curvature="0" />
    </g>
    <g
       id="g1190"
       transform="matrix(1.2500001,0,0,-1.2500001,607.53249,350.67898)">
      <path
         d="M 0,0 C 0,0.069 0.14,0.139 0.146,0.207 L 1.193,11.58 -8.704,5.851 -8.687,5.85 c -1.801,-1.033 -3.007,-2.972 -3.007,-5.196 0,-3.305 2.685,-5.796 5.991,-5.796 3.076,0 5.61,2.488 5.952,5.488 L 0,0.346 0,0 Z"
         style="fill:#7eb7e1;fill-opacity:1;fill-rule:nonzero;stroke:none"
         id="path1192"
         inkscape:connector-curvature="0" />
    </g>
  </g>
</svg>
