<?xml version="1.0" encoding="UTF-8" standalone="no"?>
<!-- Created with Inkscape (http://www.inkscape.org/) -->

<svg
   xmlns:dc="http://purl.org/dc/elements/1.1/"
   xmlns:cc="http://creativecommons.org/ns#"
   xmlns:rdf="http://www.w3.org/1999/02/22-rdf-syntax-ns#"
   xmlns:svg="http://www.w3.org/2000/svg"
   xmlns="http://www.w3.org/2000/svg"
   xmlns:sodipodi="http://sodipodi.sourceforge.net/DTD/sodipodi-0.dtd"
   xmlns:inkscape="http://www.inkscape.org/namespaces/inkscape"
   width="28.575001mm"
   height="28.575001mm"
   viewBox="0 0 101.25 101.25001"
   id="svg5798"
   version="1.1"
   inkscape:version="0.91 r13725"
   sodipodi:docname="Light-rain-shower-(night).svg">
  <defs
     id="defs5800" />
  <sodipodi:namedview
     id="base"
     pagecolor="#ffffff"
     bordercolor="#666666"
     borderopacity="1.0"
     inkscape:pageopacity="0.0"
     inkscape:pageshadow="2"
     inkscape:zoom="2.8"
     inkscape:cx="50.625003"
     inkscape:cy="50.625004"
     inkscape:document-units="px"
     inkscape:current-layer="layer1"
     showgrid="false"
     fit-margin-top="0"
     fit-margin-left="0"
     fit-margin-right="0"
     fit-margin-bottom="0"
     inkscape:window-width="1474"
     inkscape:window-height="841"
     inkscape:window-x="54"
     inkscape:window-y="-8"
     inkscape:window-maximized="1" />
  <metadata
     id="metadata5803">
    <rdf:RDF>
      <cc:Work
         rdf:about="">
        <dc:format>image/svg+xml</dc:format>
        <dc:type
           rdf:resource="http://purl.org/dc/dcmitype/StillImage" />
        <dc:title></dc:title>
      </cc:Work>
    </rdf:RDF>
  </metadata>
  <g
     inkscape:label="Layer 1"
     inkscape:groupmode="layer"
     id="layer1"
     transform="translate(-538.15757,-277.83565)">
    <g
       id="g1240"
       transform="matrix(1.25,0,0,-1.25,582.51082,335.10678)">
      <path
         d="m 0,0 c 0.008,0.069 0.013,0.137 0.02,0.206 l 0.982,11.35 -9.93,-5.718 0.004,-0.002 c -1.801,-1.03 -3.015,-2.964 -3.015,-5.185 0,-3.297 2.681,-5.971 5.987,-5.971 3.075,0 5.606,2.312 5.948,5.286 l 0,-0.001 L 0,0 Z"
         style="fill:#7eb7e1;fill-opacity:1;fill-rule:nonzero;stroke:none"
         id="path1242"
         inkscape:connector-curvature="0" />
    </g>
    <g
       id="g1244"
       transform="matrix(1.25,0,0,-1.25,635.56022,313.65477)">
      <path
         d="m 0,0 c -9.789,0 -17.725,7.915 -17.725,17.677 0,4.033 1.358,7.75 3.639,10.725 -8.693,-1.108 -15.418,-8.495 -15.453,-17.458 7.967,-0.398 14.326,-6.988 14.326,-15.031 0,-0.801 -0.064,-1.588 -0.187,-2.354 1.158,-0.239 2.357,-0.363 3.584,-0.363 5.746,0 10.849,2.728 14.087,6.954 C 1.527,0.053 0.77,0 0,0"
         style="fill:#c8c7c7;fill-opacity:1;fill-rule:nonzero;stroke:none"
         id="path1246"
         inkscape:connector-curvature="0" />
    </g>
    <g
       id="g1248"
       transform="matrix(1.25,0,0,-1.25,597.68172,303.53453)">
      <path
         d="M 0,0 C -0.508,0 -1.014,-0.034 -1.514,-0.098 -3.4,7.008 -9.898,12.259 -17.605,12.259 -25.312,12.259 -31.811,7.008 -33.697,-0.096 -34.196,-0.034 -34.701,0 -35.21,0 c -6.735,0 -12.216,-5.504 -12.216,-12.221 0,-6.719 5.481,-12.22 12.216,-12.22 l 7.591,0 0,6 -7.591,0 c -3.565,0 -6.467,2.796 -6.467,6.354 0,3.556 2.902,6.401 6.467,6.401 2.296,0 4.44,-1.258 5.597,-3.244 l 4.972,2.865 c -0.921,1.583 -2.175,2.904 -3.642,3.913 1.017,4.949 5.419,8.68 10.678,8.68 6.01,0 10.898,-4.806 10.898,-10.799 0,-2.246 -0.684,-4.17 -1.979,-6.17 l 6.51,0 c 0.618,1 1.004,3.047 1.15,4.693 0.338,0.056 0.68,0.05 1.026,0.05 3.564,0 6.467,-2.815 6.467,-6.371 0,-3.558 -2.903,-6.372 -6.467,-6.372 l -7.619,0 0,-6 7.619,0 c 6.734,0 12.215,5.501 12.215,12.22 C 12.215,-5.504 6.734,0 0,0"
         style="fill:#2b2b2a;fill-opacity:1;fill-rule:nonzero;stroke:none"
         id="path1250"
         inkscape:connector-curvature="0" />
    </g>
  </g>
</svg>
