<?xml version="1.0" encoding="UTF-8" standalone="no"?>
<!-- Created with Inkscape (http://www.inkscape.org/) -->

<svg
   xmlns:dc="http://purl.org/dc/elements/1.1/"
   xmlns:cc="http://creativecommons.org/ns#"
   xmlns:rdf="http://www.w3.org/1999/02/22-rdf-syntax-ns#"
   xmlns:svg="http://www.w3.org/2000/svg"
   xmlns="http://www.w3.org/2000/svg"
   xmlns:sodipodi="http://sodipodi.sourceforge.net/DTD/sodipodi-0.dtd"
   xmlns:inkscape="http://www.inkscape.org/namespaces/inkscape"
   width="28.575001mm"
   height="28.575001mm"
   viewBox="0 0 101.25 101.25001"
   id="svg5798"
   version="1.1"
   inkscape:version="0.91 r13725"
   sodipodi:docname="Light-snow-shower-(night).svg">
  <defs
     id="defs5800" />
  <sodipodi:namedview
     id="base"
     pagecolor="#ffffff"
     bordercolor="#666666"
     borderopacity="1.0"
     inkscape:pageopacity="0.0"
     inkscape:pageshadow="2"
     inkscape:zoom="2.8"
     inkscape:cx="36.391802"
     inkscape:cy="64.910712"
     inkscape:document-units="px"
     inkscape:current-layer="layer1"
     showgrid="false"
     fit-margin-top="0"
     fit-margin-left="0"
     fit-margin-right="0"
     fit-margin-bottom="0"
     inkscape:window-width="1474"
     inkscape:window-height="841"
     inkscape:window-x="54"
     inkscape:window-y="-8"
     inkscape:window-maximized="1" />
  <metadata
     id="metadata5803">
    <rdf:RDF>
      <cc:Work
         rdf:about="">
        <dc:format>image/svg+xml</dc:format>
        <dc:type
           rdf:resource="http://purl.org/dc/dcmitype/StillImage" />
        <dc:title></dc:title>
      </cc:Work>
    </rdf:RDF>
  </metadata>
  <g
     inkscape:label="Layer 1"
     inkscape:groupmode="layer"
     id="layer1"
     transform="translate(-646.99685,-236.85352)">
    <g
       id="g1440"
       transform="matrix(1.25,0,0,-1.25,744.57675,273.30802)">
      <path
         d="m 0,0 c -9.789,0 -17.725,7.915 -17.725,17.678 0,4.033 1.358,7.749 3.639,10.724 -8.693,-1.108 -15.418,-8.495 -15.453,-17.458 7.967,-0.398 14.326,-6.988 14.326,-15.031 0,-0.801 -0.064,-1.588 -0.186,-2.354 1.157,-0.239 2.356,-0.363 3.583,-0.363 5.746,0 10.849,2.728 14.087,6.954 C 1.528,0.053 0.771,0 0,0"
         style="fill:#c8c7c7;fill-opacity:1;fill-rule:nonzero;stroke:none"
         id="path1442"
         inkscape:connector-curvature="0" />
    </g>
    <g
       id="g1444"
       transform="matrix(1.25,0,0,-1.25,706.68845,263.25002)">
      <path
         d="m 0,0 c -0.507,0 -1.012,-0.035 -1.513,-0.097 -1.886,7.12 -8.385,12.383 -16.092,12.383 -7.705,0 -14.204,-5.263 -16.092,-12.383 C -34.195,-0.033 -34.7,0 -35.209,0 c -6.736,0 -12.216,-5.709 -12.216,-12.441 0,-6.733 5.48,-12.442 12.216,-12.442 l 7.456,0 0,6 -7.456,0 c -3.566,0 -6.467,3.004 -6.467,6.569 0,3.564 2.901,6.515 6.467,6.515 2.297,0 4.441,-1.211 5.597,-3.201 l 4.971,2.898 c -0.919,1.584 -2.173,2.92 -3.64,3.931 1.016,4.961 5.418,8.707 10.676,8.707 6.009,0 10.898,-5.022 10.898,-11.03 0,-2.251 -0.683,-4.389 -1.977,-6.389 l 6.508,0 c 0.619,2 1.005,3.264 1.151,4.914 0.338,0.056 0.68,0.153 1.025,0.153 3.566,0 6.467,-2.968 6.467,-6.532 0,-3.565 -2.901,-6.535 -6.467,-6.535 l -7.753,0 0,-6 7.753,0 c 6.736,0 12.216,5.709 12.216,12.442 C 12.216,-5.709 6.736,0 0,0"
         style="fill:#2b2b2a;fill-opacity:1;fill-rule:nonzero;stroke:none"
         id="path1446"
         inkscape:connector-curvature="0" />
    </g>
    <g
       id="g1448"
       transform="matrix(1.25,0,0,-1.25,689.11525,300.81162)">
      <path
         d="M 0,0 -9.032,9.031 -7.226,10.837 1.807,1.806 0,0 Z"
         style="fill:#d8d8d8;fill-opacity:1;fill-rule:nonzero;stroke:none"
         id="path1450"
         inkscape:connector-curvature="0" />
    </g>
    <g
       id="g1452"
       transform="matrix(1.25,0,0,-1.25,684.07485,302.16302)">
      <path
         d="M 0,0 -2.469,0.661 0.838,13 3.306,12.338 0,0 Z"
         style="fill:#d8d8d8;fill-opacity:1;fill-rule:nonzero;stroke:none"
         id="path1454"
         inkscape:connector-curvature="0" />
    </g>
    <g
       id="g1456"
       transform="matrix(1.25,0,0,-1.25,677.30015,297.64762)">
      <path
         d="M 0,0 -0.661,2.469 11.678,5.775 12.339,3.306 0,0 Z"
         style="fill:#d8d8d8;fill-opacity:1;fill-rule:nonzero;stroke:none"
         id="path1458"
         inkscape:connector-curvature="0" />
    </g>
  </g>
</svg>
