<?xml version="1.0" encoding="UTF-8" standalone="no"?>
<!-- Created with Inkscape (http://www.inkscape.org/) -->

<svg
   xmlns:dc="http://purl.org/dc/elements/1.1/"
   xmlns:cc="http://creativecommons.org/ns#"
   xmlns:rdf="http://www.w3.org/1999/02/22-rdf-syntax-ns#"
   xmlns:svg="http://www.w3.org/2000/svg"
   xmlns="http://www.w3.org/2000/svg"
   xmlns:sodipodi="http://sodipodi.sourceforge.net/DTD/sodipodi-0.dtd"
   xmlns:inkscape="http://www.inkscape.org/namespaces/inkscape"
   width="28.574999mm"
   height="28.575001mm"
   viewBox="0 0 101.24999 101.25001"
   id="svg5798"
   version="1.1"
   inkscape:version="0.91 r13725"
   sodipodi:docname="Overcast.svg">
  <defs
     id="defs5800" />
  <sodipodi:namedview
     id="base"
     pagecolor="#ffffff"
     bordercolor="#666666"
     borderopacity="1.0"
     inkscape:pageopacity="0.0"
     inkscape:pageshadow="2"
     inkscape:zoom="2.8"
     inkscape:cx="-54.107152"
     inkscape:cy="42.678575"
     inkscape:document-units="px"
     inkscape:current-layer="layer1"
     showgrid="false"
     fit-margin-top="0"
     fit-margin-left="0"
     fit-margin-right="0"
     fit-margin-bottom="0"
     inkscape:window-width="1474"
     inkscape:window-height="841"
     inkscape:window-x="54"
     inkscape:window-y="-8"
     inkscape:window-maximized="1" />
  <metadata
     id="metadata5803">
    <rdf:RDF>
      <cc:Work
         rdf:about="">
        <dc:format>image/svg+xml</dc:format>
        <dc:type
           rdf:resource="http://purl.org/dc/dcmitype/StillImage" />
        <dc:title></dc:title>
      </cc:Work>
    </rdf:RDF>
  </metadata>
  <g
     inkscape:label="Layer 1"
     inkscape:groupmode="layer"
     id="layer1"
     transform="translate(-305.73893,-341.31778)">
    <g
       id="g262"
       transform="matrix(1.2500001,0,0,-1.2500001,378.56723,390.06778)">
      <path
         d="m 0,0 -6.545,0 -1.119,0 -27.545,0 c -3.565,0 -6.467,2.853 -6.467,6.408 0,3.557 2.902,6.428 6.467,6.428 2.296,0 4.44,-1.242 5.597,-3.229 l 4.971,2.873 c -0.92,1.582 -2.173,2.906 -3.641,3.915 1.017,4.948 5.419,8.683 10.678,8.683 6.01,0 10.897,-4.861 10.897,-10.854 C -6.707,11.977 -7.391,10 -8.685,8 l 6.509,0 c 0.619,1 1.005,3.103 1.151,4.749 0.338,0.055 0.68,0.075 1.025,0.075 3.565,0 6.467,-2.855 6.467,-6.411 C 6.467,2.857 3.565,0 0,0 m 0,18.55 c -0.508,0 -1.013,-0.033 -1.513,-0.097 -1.885,7.106 -8.384,12.357 -16.091,12.357 -7.708,0 -14.207,-5.251 -16.092,-12.356 -0.499,0.063 -1.004,0.096 -1.513,0.096 -6.736,0 -12.216,-5.558 -12.216,-12.276 0,-6.718 5.48,-12.274 12.216,-12.274 l 27.545,0 1.119,0 L 0,-6 C 6.735,-6 12.216,-0.444 12.216,6.274 12.216,12.992 6.735,18.55 0,18.55"
         style="fill:#1d1d1d;fill-opacity:1;fill-rule:nonzero;stroke:none"
         id="path264"
         inkscape:connector-curvature="0" />
    </g>
  </g>
</svg>
