<?xml version="1.0" encoding="UTF-8" standalone="no"?>
<!-- Created with Inkscape (http://www.inkscape.org/) -->

<svg
   xmlns:dc="http://purl.org/dc/elements/1.1/"
   xmlns:cc="http://creativecommons.org/ns#"
   xmlns:rdf="http://www.w3.org/1999/02/22-rdf-syntax-ns#"
   xmlns:svg="http://www.w3.org/2000/svg"
   xmlns="http://www.w3.org/2000/svg"
   xmlns:sodipodi="http://sodipodi.sourceforge.net/DTD/sodipodi-0.dtd"
   xmlns:inkscape="http://www.inkscape.org/namespaces/inkscape"
   width="28.575001mm"
   height="28.575001mm"
   viewBox="0 0 101.25 101.25001"
   id="svg5798"
   version="1.1"
   inkscape:version="0.91 r13725"
   sodipodi:docname="Partly-cloudy-(night).svg">
  <defs
     id="defs5800" />
  <sodipodi:namedview
     id="base"
     pagecolor="#ffffff"
     bordercolor="#666666"
     borderopacity="1.0"
     inkscape:pageopacity="0.0"
     inkscape:pageshadow="2"
     inkscape:zoom="2.8"
     inkscape:cx="28.84723"
     inkscape:cy="31.696443"
     inkscape:document-units="px"
     inkscape:current-layer="layer1"
     showgrid="false"
     fit-margin-top="0"
     fit-margin-left="0"
     fit-margin-right="0"
     fit-margin-bottom="0"
     inkscape:window-width="1474"
     inkscape:window-height="841"
     inkscape:window-x="54"
     inkscape:window-y="-8"
     inkscape:window-maximized="1" />
  <metadata
     id="metadata5803">
    <rdf:RDF>
      <cc:Work
         rdf:about="">
        <dc:format>image/svg+xml</dc:format>
        <dc:type
           rdf:resource="http://purl.org/dc/dcmitype/StillImage" />
        <dc:title></dc:title>
      </cc:Work>
    </rdf:RDF>
  </metadata>
  <g
     inkscape:label="Layer 1"
     inkscape:groupmode="layer"
     id="layer1"
     transform="translate(-559.93536,-258.90708)">
    <g
       id="g644"
       transform="matrix(1.25,0,0,-1.25,658.04461,294.81733)">
      <path
         d="m 0,0 c -9.789,0 -17.725,7.913 -17.725,17.677 0,4.033 1.358,7.748 3.639,10.724 -8.693,-1.108 -15.418,-8.496 -15.453,-17.458 7.967,-0.399 14.326,-6.989 14.326,-15.031 0,-0.801 -0.064,-1.588 -0.185,-2.354 1.156,-0.239 2.355,-0.363 3.582,-0.363 5.746,0 10.85,2.728 14.087,6.955 C 1.529,0.052 0.771,0 0,0"
         style="fill:#c8c7c7;fill-opacity:1;fill-rule:nonzero;stroke:none"
         id="path646"
         inkscape:connector-curvature="0" />
    </g>
    <g
       id="g648"
       transform="matrix(1.25,0,0,-1.25,620.16621,307.65671)">
      <path
         d="m 0,0 -6.545,0 -1.119,0 -27.545,0 c -3.566,0 -6.467,2.76 -6.467,6.316 0,3.557 2.901,6.382 6.467,6.382 2.295,0 4.439,-1.265 5.596,-3.251 l 4.972,2.86 c -0.92,1.582 -2.173,2.902 -3.642,3.91 1.017,4.948 5.42,8.678 10.678,8.678 6.011,0 10.898,-4.769 10.898,-10.762 C -6.707,11.887 -7.391,10 -8.684,8 l 6.508,0 c 0.619,1 1.006,3.01 1.151,4.657 0.338,0.055 0.679,0.029 1.025,0.029 3.566,0 6.467,-2.786 6.467,-6.342 C 6.467,2.787 3.566,0 0,0 m 0,18.366 c -0.508,0 -1.012,-0.033 -1.514,-0.097 -1.884,7.105 -8.384,12.357 -16.091,12.357 -7.707,0 -14.206,-5.252 -16.092,-12.355 -0.498,0.062 -1.004,0.095 -1.512,0.095 -6.736,0 -12.217,-5.465 -12.217,-12.184 0,-6.716 5.481,-12.182 12.217,-12.182 l 27.545,0 1.119,0 L 0,-6 c 6.736,0 12.215,5.466 12.215,12.182 0,6.719 -5.479,12.184 -12.215,12.184"
         style="fill:#e7e7e7;fill-opacity:1;fill-rule:nonzero;stroke:none"
         id="path650"
         inkscape:connector-curvature="0" />
    </g>
  </g>
</svg>
