<?xml version="1.0" encoding="UTF-8" standalone="no"?>
<!-- Created with Inkscape (http://www.inkscape.org/) -->

<svg
   xmlns:dc="http://purl.org/dc/elements/1.1/"
   xmlns:cc="http://creativecommons.org/ns#"
   xmlns:rdf="http://www.w3.org/1999/02/22-rdf-syntax-ns#"
   xmlns:svg="http://www.w3.org/2000/svg"
   xmlns="http://www.w3.org/2000/svg"
   xmlns:sodipodi="http://sodipodi.sourceforge.net/DTD/sodipodi-0.dtd"
   xmlns:inkscape="http://www.inkscape.org/namespaces/inkscape"
   width="28.574999mm"
   height="28.575001mm"
   viewBox="0 0 101.24999 101.25001"
   id="svg5798"
   version="1.1"
   inkscape:version="0.91 r13725"
   sodipodi:docname="Partly-cloudy-(day).svg">
  <defs
     id="defs5800" />
  <sodipodi:namedview
     id="base"
     pagecolor="#ffffff"
     bordercolor="#666666"
     borderopacity="1.0"
     inkscape:pageopacity="0.0"
     inkscape:pageshadow="2"
     inkscape:zoom="2.8"
     inkscape:cx="50.624994"
     inkscape:cy="50.625003"
     inkscape:document-units="px"
     inkscape:current-layer="layer1"
     showgrid="false"
     fit-margin-top="0"
     fit-margin-left="0"
     fit-margin-right="0"
     fit-margin-bottom="0"
     inkscape:window-width="1474"
     inkscape:window-height="841"
     inkscape:window-x="54"
     inkscape:window-y="-8"
     inkscape:window-maximized="1" />
  <metadata
     id="metadata5803">
    <rdf:RDF>
      <cc:Work
         rdf:about="">
        <dc:format>image/svg+xml</dc:format>
        <dc:type
           rdf:resource="http://purl.org/dc/dcmitype/StillImage" />
        <dc:title></dc:title>
      </cc:Work>
    </rdf:RDF>
  </metadata>
  <g
     inkscape:label="Layer 1"
     inkscape:groupmode="layer"
     id="layer1"
     transform="translate(-538.15759,-277.83564)">
    <path
       d="m 601.90759,292.83564 -7.5,0 0,-15 7.5,0 0,15 z"
       style="fill:#f8d452;fill-opacity:1;fill-rule:nonzero;stroke:none"
       id="path676"
       inkscape:connector-curvature="0" />
    <path
       d="m 601.90759,359.08564 -7.5,0 0,-15 7.5,0 0,15 z"
       style="fill:#f8d452;fill-opacity:1;fill-rule:nonzero;stroke:none"
       id="path678"
       inkscape:connector-curvature="0" />
    <path
       d="m 624.40759,315.33564 15,0 0,7.5 -15,0 0,-7.5 z"
       style="fill:#f8d452;fill-opacity:1;fill-rule:nonzero;stroke:none"
       id="path680"
       inkscape:connector-curvature="0" />
    <g
       id="g682"
       transform="matrix(1.2500001,0,0,-1.2500001,615.54519,355.99152)">
      <path
         d="M 0,0 -5.988,10.367 -1.01,13.24 4.98,2.873 0,0 Z"
         style="fill:#f8d452;fill-opacity:1;fill-rule:nonzero;stroke:none"
         id="path684"
         inkscape:connector-curvature="0" />
    </g>
    <g
       id="g686"
       transform="matrix(1.2500001,0,0,-1.2500001,622.39569,309.18851)">
      <path
         d="M 0,0 -2.875,4.977 7.496,10.962 10.369,5.986 0,0 Z"
         style="fill:#f8d452;fill-opacity:1;fill-rule:nonzero;stroke:none"
         id="path688"
         inkscape:connector-curvature="0" />
    </g>
    <g
       id="g690"
       transform="matrix(1.2500001,0,0,-1.2500001,631.76589,342.40752)">
      <path
         d="M 0,0 -10.371,5.982 -7.498,10.961 2.873,4.975 0,0 Z"
         style="fill:#f8d452;fill-opacity:1;fill-rule:nonzero;stroke:none"
         id="path692"
         inkscape:connector-curvature="0" />
    </g>
    <g
       id="g694"
       transform="matrix(1.2500001,0,0,-1.2500001,614.28539,298.45189)">
      <path
         d="M 0,0 -4.979,2.872 1.008,13.24 5.988,10.367 0,0 Z"
         style="fill:#f8d452;fill-opacity:1;fill-rule:nonzero;stroke:none"
         id="path696"
         inkscape:connector-curvature="0" />
    </g>
    <g
       id="g698"
       transform="matrix(1.2500001,0,0,-1.2500001,598.29909,326.58539)">
      <path
         d="m 0,0 -5.545,0 -2.121,0 -27.545,0 c -3.564,0 -6.467,2.723 -6.467,6.287 0,3.565 2.903,6.377 6.467,6.377 2.297,0 4.441,-1.282 5.598,-3.273 l 4.972,2.863 c -0.92,1.584 -2.173,2.903 -3.642,3.914 1.017,4.961 5.418,8.698 10.678,8.698 6.009,0 10.898,-4.746 10.898,-10.753 C -6.707,11.863 -7.391,10 -8.684,8 l 6.508,0 c 0.617,1 1.004,2.983 1.151,4.633 0.338,0.055 0.679,0.014 1.025,0.014 3.566,0 6.467,-2.759 6.467,-6.324 C 6.467,2.759 3.566,0 0,0 m 0,18.321 c -0.508,0 -1.014,-0.035 -1.514,-0.097 -1.886,7.121 -8.384,12.382 -16.091,12.382 -7.707,0 -14.206,-5.261 -16.092,-12.382 -0.498,0.065 -1.004,0.097 -1.514,0.097 -6.734,0 -12.215,-5.428 -12.215,-12.161 0,-6.732 5.481,-12.16 12.215,-12.16 l 27.545,0 2.121,0 L 0,-6 c 6.734,0 12.215,5.428 12.215,12.16 0,6.733 -5.481,12.161 -12.215,12.161"
         style="fill:#e7e7e7;fill-opacity:1;fill-rule:nonzero;stroke:none"
         id="path700"
         inkscape:connector-curvature="0" />
    </g>
  </g>
</svg>
