<?xml version="1.0" encoding="UTF-8" standalone="no"?>
<!-- Created with Inkscape (http://www.inkscape.org/) -->

<svg
   xmlns:dc="http://purl.org/dc/elements/1.1/"
   xmlns:cc="http://creativecommons.org/ns#"
   xmlns:rdf="http://www.w3.org/1999/02/22-rdf-syntax-ns#"
   xmlns:svg="http://www.w3.org/2000/svg"
   xmlns="http://www.w3.org/2000/svg"
   xmlns:sodipodi="http://sodipodi.sourceforge.net/DTD/sodipodi-0.dtd"
   xmlns:inkscape="http://www.inkscape.org/namespaces/inkscape"
   width="28.575001mm"
   height="28.575001mm"
   viewBox="0 0 101.25 101.25"
   id="svg4778"
   version="1.1"
   inkscape:version="0.91 r13725"
   sodipodi:docname="Sleet-Shower-(day).svg">
  <defs
     id="defs4780" />
  <sodipodi:namedview
     id="base"
     pagecolor="#ffffff"
     bordercolor="#666666"
     borderopacity="1.0"
     inkscape:pageopacity="0.0"
     inkscape:pageshadow="2"
     inkscape:zoom="2.8"
     inkscape:cx="39.048801"
     inkscape:cy="99.026512"
     inkscape:document-units="px"
     inkscape:current-layer="layer1"
     showgrid="false"
     fit-margin-top="0"
     fit-margin-left="0"
     fit-margin-right="0"
     fit-margin-bottom="0"
     inkscape:window-width="1474"
     inkscape:window-height="841"
     inkscape:window-x="54"
     inkscape:window-y="-8"
     inkscape:window-maximized="1" />
  <metadata
     id="metadata4783">
    <rdf:RDF>
      <cc:Work
         rdf:about="">
        <dc:format>image/svg+xml</dc:format>
        <dc:type
           rdf:resource="http://purl.org/dc/dcmitype/StillImage" />
        <dc:title></dc:title>
      </cc:Work>
    </rdf:RDF>
  </metadata>
  <g
     inkscape:label="Layer 1"
     inkscape:groupmode="layer"
     id="layer1"
     transform="translate(-712.23214,-727.45149)">
    <path
       d="m 775.98214,742.45149 -7.5,0 0,-13.75 7.5,0 0,13.75 z"
       style="fill:#f8d452;fill-opacity:1;fill-rule:nonzero;stroke:none"
       id="path9917"
       inkscape:connector-curvature="0" />
    <path
       d="m 775.98214,809.95149 -7.5,0 0,-15 7.5,0 0,15 z"
       style="fill:#f8d452;fill-opacity:1;fill-rule:nonzero;stroke:none"
       id="path9919"
       inkscape:connector-curvature="0" />
    <path
       d="m 798.48214,764.95149 15,0 0,7.5 -15,0 0,-7.5 z"
       style="fill:#f8d452;fill-opacity:1;fill-rule:nonzero;stroke:none"
       id="path9921"
       inkscape:connector-curvature="0" />
    <g
       id="g9923"
       transform="matrix(1.25,0,0,-1.25,789.43901,805.85512)">
      <path
         d="M 0,0 -5.987,10.366 -1.009,13.24 4.979,2.872 0,0 Z"
         style="fill:#f8d452;fill-opacity:1;fill-rule:nonzero;stroke:none"
         id="path9925"
         inkscape:connector-curvature="0" />
    </g>
    <g
       id="g9927"
       transform="matrix(1.25,0,0,-1.25,796.28839,759.05174)">
      <path
         d="M 0,0 -2.876,4.976 7.496,10.962 10.37,5.986 0,0 Z"
         style="fill:#f8d452;fill-opacity:1;fill-rule:nonzero;stroke:none"
         id="path9929"
         inkscape:connector-curvature="0" />
    </g>
    <g
       id="g9931"
       transform="matrix(1.25,0,0,-1.25,805.65851,792.27074)">
      <path
         d="M 0,0 -10.372,5.983 -7.496,10.96 2.874,4.974 0,0 Z"
         style="fill:#f8d452;fill-opacity:1;fill-rule:nonzero;stroke:none"
         id="path9933"
         inkscape:connector-curvature="0" />
    </g>
    <g
       id="g9935"
       transform="matrix(1.25,0,0,-1.25,788.17802,748.31749)">
      <path
         d="M 0,0 -4.979,2.874 1.009,13.242 5.988,10.37 0,0 Z"
         style="fill:#f8d452;fill-opacity:1;fill-rule:nonzero;stroke:none"
         id="path9937"
         inkscape:connector-curvature="0" />
    </g>
    <g
       id="g9939"
       transform="matrix(1.25,0,0,-1.25,772.19176,753.54574)">
      <path
         d="m 0,0 c -0.508,0 -1.012,-0.037 -1.514,-0.098 -1.887,7.119 -8.385,12.383 -16.092,12.383 -7.706,0 -14.205,-5.264 -16.091,-12.383 -0.498,0.064 -1.005,0.098 -1.514,0.098 -6.734,0 -12.214,-5.33 -12.214,-12.063 0,-6.734 5.48,-12.062 12.214,-12.062 l 7.243,0 0,5 -7.243,0 c -3.564,0 -6.467,3.125 -6.467,6.689 0,3.565 2.903,6.576 6.467,6.576 2.297,0 4.441,-1.181 5.598,-3.171 l 4.972,2.913 c -0.92,1.584 -2.174,2.927 -3.642,3.937 1.016,4.961 5.42,8.713 10.677,8.713 6.01,0 10.899,-4.641 10.899,-10.648 0,-2.253 -0.684,-5.009 -1.978,-6.009 l 6.51,0 c 0.618,1 1.003,2.885 1.15,4.536 0.338,0.054 0.679,-0.037 1.025,-0.037 3.566,0 6.466,-3.184 6.466,-6.749 0,-3.564 -2.9,-6.75 -6.466,-6.75 l -7.968,0 0,-5 7.968,0 c 6.736,0 12.214,5.328 12.214,12.062 C 12.214,-5.33 6.736,0 0,0"
         style="fill:#2b2b2a;fill-opacity:1;fill-rule:nonzero;stroke:none"
         id="path9941"
         inkscape:connector-curvature="0" />
    </g>
    <g
       id="g9943"
       transform="matrix(1.25,0,0,-1.25,736.50814,802.64612)">
      <path
         d="m 0,0 c 0.006,0.068 0.012,0.041 0.018,0.112 l 0.984,11.574 -9.93,-5.53 0.002,0 c -1.801,-2 -3.015,-3.221 -3.015,-5.447 0,-3.303 2.681,-5.917 5.988,-5.917 3.075,0 5.607,2.364 5.947,5.364 l 0.003,0 L 0,0 Z"
         style="fill:#7eb7e1;fill-opacity:1;fill-rule:nonzero;stroke:none"
         id="path9945"
         inkscape:connector-curvature="0" />
    </g>
    <g
       id="g9947"
       transform="matrix(1.25,0,0,-1.25,754.77476,791.15724)">
      <path
         d="M 0,0 -9.032,9.031 -7.227,10.838 1.807,1.806 0,0 Z"
         style="fill:#d8d8d8;fill-opacity:1;fill-rule:nonzero;stroke:none"
         id="path9949"
         inkscape:connector-curvature="0" />
    </g>
    <g
       id="g9951"
       transform="matrix(1.25,0,0,-1.25,749.73451,792.50874)">
      <path
         d="M 0,0 -2.469,0.661 0.838,13 3.306,12.339 0,0 Z"
         style="fill:#d8d8d8;fill-opacity:1;fill-rule:nonzero;stroke:none"
         id="path9953"
         inkscape:connector-curvature="0" />
    </g>
    <g
       id="g9955"
       transform="matrix(1.25,0,0,-1.25,742.95951,787.99337)">
      <path
         d="M 0,0 -0.661,2.469 11.678,5.775 12.339,3.307 0,0 Z"
         style="fill:#d8d8d8;fill-opacity:1;fill-rule:nonzero;stroke:none"
         id="path9957"
         inkscape:connector-curvature="0" />
    </g>
  </g>
</svg>
