<?xml version="1.0" encoding="UTF-8" standalone="no"?>
<!-- Created with Inkscape (http://www.inkscape.org/) -->

<svg
   xmlns:dc="http://purl.org/dc/elements/1.1/"
   xmlns:cc="http://creativecommons.org/ns#"
   xmlns:rdf="http://www.w3.org/1999/02/22-rdf-syntax-ns#"
   xmlns:svg="http://www.w3.org/2000/svg"
   xmlns="http://www.w3.org/2000/svg"
   xmlns:sodipodi="http://sodipodi.sourceforge.net/DTD/sodipodi-0.dtd"
   xmlns:inkscape="http://www.inkscape.org/namespaces/inkscape"
   width="28.574999mm"
   height="28.575001mm"
   viewBox="0 0 101.24999 101.25001"
   id="svg5798"
   version="1.1"
   inkscape:version="0.91 r13725"
   sodipodi:docname="Sleet.svg">
  <defs
     id="defs5800" />
  <sodipodi:namedview
     id="base"
     pagecolor="#ffffff"
     bordercolor="#666666"
     borderopacity="1.0"
     inkscape:pageopacity="0.0"
     inkscape:pageshadow="2"
     inkscape:zoom="2.8"
     inkscape:cx="-3.1896845"
     inkscape:cy="45.151586"
     inkscape:document-units="px"
     inkscape:current-layer="layer1"
     showgrid="false"
     fit-margin-top="0"
     fit-margin-left="0"
     fit-margin-right="0"
     fit-margin-bottom="0"
     inkscape:window-width="1474"
     inkscape:window-height="841"
     inkscape:window-x="54"
     inkscape:window-y="-8"
     inkscape:window-maximized="1" />
  <metadata
     id="metadata5803">
    <rdf:RDF>
      <cc:Work
         rdf:about="">
        <dc:format>image/svg+xml</dc:format>
        <dc:type
           rdf:resource="http://purl.org/dc/dcmitype/StillImage" />
        <dc:title></dc:title>
      </cc:Work>
    </rdf:RDF>
  </metadata>
  <g
     inkscape:label="Layer 1"
     inkscape:groupmode="layer"
     id="layer1"
     transform="translate(-335.89289,-343.79079)">
    <g
       id="g102"
       transform="matrix(1.2500001,0,0,-1.2500001,409.05929,369.37517)">
      <path
         d="m 0,0 c -0.506,0 -1.012,-0.035 -1.512,-0.098 -1.886,7.12 -8.386,12.383 -16.094,12.383 -7.705,0 -14.203,-5.263 -16.089,-12.383 -0.498,0.065 -1.004,0.098 -1.514,0.098 -6.734,0 -12.215,-5.534 -12.215,-12.267 0,-6.734 5.481,-12.266 12.215,-12.266 l 7.676,0 0,6 -7.676,0 c -3.566,0 -6.467,2.829 -6.467,6.393 0,3.565 2.901,6.428 6.467,6.428 2.297,0 4.441,-1.255 5.598,-3.245 l 4.972,2.876 c -0.922,1.584 -2.176,2.909 -3.642,3.919 1.017,4.961 5.418,8.703 10.675,8.703 6.01,0 10.899,-4.849 10.899,-10.857 0,-2.252 -0.682,-4.217 -1.977,-6.217 l 6.508,0 c 0.619,1 1.006,3.089 1.151,4.74 0.338,0.054 0.681,0.064 1.025,0.064 3.566,0 6.467,-2.836 6.467,-6.401 0,-3.564 -2.901,-6.403 -6.467,-6.403 l -7.533,0 0,-6 7.533,0 c 6.736,0 12.217,5.532 12.217,12.266 C 12.217,-5.534 6.736,0 0,0"
         style="fill:#2b2b2a;fill-opacity:1;fill-rule:nonzero;stroke:none"
         id="path104"
         inkscape:connector-curvature="0" />
    </g>
    <g
       id="g106"
       transform="matrix(1.2500001,0,0,-1.2500001,373.37569,418.71268)">
      <path
         d="m 0,0 c 0.008,0.068 0.014,0.136 0.018,0.207 l 0.986,11.416 -9.93,-5.686 0.002,0 c -1.801,-1 -3.015,-3.016 -3.015,-5.241 0,-3.305 2.681,-6.006 5.988,-6.006 3.074,0 5.605,2.305 5.947,5.287 L -0.002,-0.031 0,0 Z"
         style="fill:#7eb7e1;fill-opacity:1;fill-rule:nonzero;stroke:none"
         id="path108"
         inkscape:connector-curvature="0" />
    </g>
    <g
       id="g110"
       transform="matrix(1.2500001,0,0,-1.2500001,391.64349,406.98618)">
      <path
         d="M 0,0 -9.032,9.031 -7.227,10.838 1.807,1.806 0,0 Z"
         style="fill:#d8d8d8;fill-opacity:1;fill-rule:nonzero;stroke:none"
         id="path112"
         inkscape:connector-curvature="0" />
    </g>
    <g
       id="g114"
       transform="matrix(1.2500001,0,0,-1.2500001,386.60329,408.33742)">
      <path
         d="M 0,0 -2.469,0.661 0.838,13 3.306,12.338 0,0 Z"
         style="fill:#d8d8d8;fill-opacity:1;fill-rule:nonzero;stroke:none"
         id="path116"
         inkscape:connector-curvature="0" />
    </g>
    <g
       id="g118"
       transform="matrix(1.2500001,0,0,-1.2500001,379.82829,403.82205)">
      <path
         d="M 0,0 -0.661,2.469 11.678,5.775 12.339,3.306 0,0 Z"
         style="fill:#d8d8d8;fill-opacity:1;fill-rule:nonzero;stroke:none"
         id="path120"
         inkscape:connector-curvature="0" />
    </g>
  </g>
</svg>
