<?xml version="1.0" encoding="UTF-8" standalone="no"?>
<!-- Created with Inkscape (http://www.inkscape.org/) -->

<svg
   xmlns:dc="http://purl.org/dc/elements/1.1/"
   xmlns:cc="http://creativecommons.org/ns#"
   xmlns:rdf="http://www.w3.org/1999/02/22-rdf-syntax-ns#"
   xmlns:svg="http://www.w3.org/2000/svg"
   xmlns="http://www.w3.org/2000/svg"
   xmlns:sodipodi="http://sodipodi.sourceforge.net/DTD/sodipodi-0.dtd"
   xmlns:inkscape="http://www.inkscape.org/namespaces/inkscape"
   width="28.575001mm"
   height="28.575001mm"
   viewBox="0 0 101.25 101.25001"
   id="svg5798"
   version="1.1"
   inkscape:version="0.91 r13725"
   sodipodi:docname="Sleet-shower-(night).svg">
  <defs
     id="defs5800" />
  <sodipodi:namedview
     id="base"
     pagecolor="#ffffff"
     bordercolor="#666666"
     borderopacity="1.0"
     inkscape:pageopacity="0.0"
     inkscape:pageshadow="2"
     inkscape:zoom="2.8"
     inkscape:cx="50.625004"
     inkscape:cy="50.625"
     inkscape:document-units="px"
     inkscape:current-layer="layer1"
     showgrid="false"
     fit-margin-top="0"
     fit-margin-left="0"
     fit-margin-right="0"
     fit-margin-bottom="0"
     inkscape:window-width="1474"
     inkscape:window-height="841"
     inkscape:window-x="54"
     inkscape:window-y="-8"
     inkscape:window-maximized="1" />
  <metadata
     id="metadata5803">
    <rdf:RDF>
      <cc:Work
         rdf:about="">
        <dc:format>image/svg+xml</dc:format>
        <dc:type
           rdf:resource="http://purl.org/dc/dcmitype/StillImage" />
        <dc:title></dc:title>
      </cc:Work>
    </rdf:RDF>
  </metadata>
  <g
     inkscape:label="Layer 1"
     inkscape:groupmode="layer"
     id="layer1"
     transform="translate(-538.15758,-277.83564)">
    <g
       id="g776"
       transform="matrix(1.2500001,0,0,-1.2500001,635.47548,314.09764)">
      <path
         d="m 0,0 c -9.789,0 -17.725,7.915 -17.725,17.678 0,4.032 1.358,7.749 3.638,10.724 -8.692,-1.109 -15.417,-8.495 -15.452,-17.458 7.967,-0.399 14.325,-6.988 14.325,-15.032 0,-0.8 -0.063,-1.587 -0.186,-2.353 1.158,-0.239 2.357,-0.363 3.584,-0.363 5.746,0 10.849,2.728 14.087,6.954 C 1.527,0.054 0.77,0 0,0"
         style="fill:#c8c7c7;fill-opacity:1;fill-rule:nonzero;stroke:none"
         id="path778"
         inkscape:connector-curvature="0" />
    </g>
    <g
       id="g780"
       transform="matrix(1.2500001,0,0,-1.2500001,597.58718,304.03964)">
      <path
         d="M 0,0 C -0.508,0 -1.013,-0.034 -1.514,-0.097 -3.4,7.022 -9.898,12.286 -17.605,12.286 -25.312,12.286 -31.81,7.022 -33.697,-0.097 -34.195,-0.033 -34.701,0 -35.21,0 c -6.735,0 -12.216,-5.286 -12.216,-12.018 0,-6.733 5.481,-12.019 12.216,-12.019 l 7.666,0 0,5 -7.666,0 c -3.565,0 -6.467,3.08 -6.467,6.646 0,3.564 2.902,6.554 6.467,6.554 2.297,0 4.44,-1.192 5.597,-3.182 l 4.972,2.907 c -0.92,1.584 -2.173,2.925 -3.641,3.936 1.016,4.962 5.418,8.709 10.677,8.709 6.009,0 10.898,-5.097 10.898,-11.105 0,-2.251 -0.684,-4.465 -1.977,-6.465 l 6.508,0 c 0.618,2 1.004,3.341 1.151,4.991 0.338,0.055 0.679,0.192 1.025,0.192 3.566,0 6.467,-3.027 6.467,-6.59 0,-3.566 -2.901,-6.593 -6.467,-6.593 l -7.544,0 0,-5 7.544,0 c 6.735,0 12.215,5.286 12.215,12.019 C 12.215,-5.286 6.735,0 0,0"
         style="fill:#2b2b2a;fill-opacity:1;fill-rule:nonzero;stroke:none"
         id="path782"
         inkscape:connector-curvature="0" />
    </g>
    <g
       id="g784"
       transform="matrix(1.2500001,0,0,-1.2500001,561.90368,353.37739)">
      <path
         d="M 0,0 C 0.007,0.069 0.012,0.137 0.018,0.207 L 1.002,11.58 -8.927,5.851 -8.926,5.85 c -1.801,-1.034 -3.014,-2.973 -3.014,-5.197 0,-3.305 2.68,-5.985 5.988,-5.985 3.073,0 5.606,2.316 5.946,5.298 L -0.004,-0.035 0,0 Z"
         style="fill:#7eb7e1;fill-opacity:1;fill-rule:nonzero;stroke:none"
         id="path786"
         inkscape:connector-curvature="0" />
    </g>
    <g
       id="g788"
       transform="matrix(1.2500001,0,0,-1.2500001,580.01408,341.60189)">
      <path
         d="M 0,0 -9.033,9.031 -7.227,10.838 1.807,1.807 0,0 Z"
         style="fill:#d8d8d8;fill-opacity:1;fill-rule:nonzero;stroke:none"
         id="path790"
         inkscape:connector-curvature="0" />
    </g>
    <g
       id="g792"
       transform="matrix(1.2500001,0,0,-1.2500001,574.97248,342.95264)">
      <path
         d="M 0,0 -2.469,0.661 0.838,13 3.307,12.338 0,0 Z"
         style="fill:#d8d8d8;fill-opacity:1;fill-rule:nonzero;stroke:none"
         id="path794"
         inkscape:connector-curvature="0" />
    </g>
    <g
       id="g796"
       transform="matrix(1.2500001,0,0,-1.2500001,568.19758,338.43777)">
      <path
         d="M 0,0 -0.66,2.469 11.678,5.775 12.34,3.307 0,0 Z"
         style="fill:#d8d8d8;fill-opacity:1;fill-rule:nonzero;stroke:none"
         id="path798"
         inkscape:connector-curvature="0" />
    </g>
  </g>
</svg>
