<?xml version="1.0" encoding="UTF-8" standalone="no"?>
<!-- Created with Inkscape (http://www.inkscape.org/) -->

<svg
   xmlns:dc="http://purl.org/dc/elements/1.1/"
   xmlns:cc="http://creativecommons.org/ns#"
   xmlns:rdf="http://www.w3.org/1999/02/22-rdf-syntax-ns#"
   xmlns:svg="http://www.w3.org/2000/svg"
   xmlns="http://www.w3.org/2000/svg"
   xmlns:sodipodi="http://sodipodi.sourceforge.net/DTD/sodipodi-0.dtd"
   xmlns:inkscape="http://www.inkscape.org/namespaces/inkscape"
   width="28.575001mm"
   height="28.575001mm"
   viewBox="0 0 101.25 101.25"
   id="svg5467"
   version="1.1"
   inkscape:version="0.91 r13725"
   sodipodi:docname="Sunny-day.svg">
  <defs
     id="defs5469" />
  <sodipodi:namedview
     id="base"
     pagecolor="#ffffff"
     bordercolor="#666666"
     borderopacity="1.0"
     inkscape:pageopacity="0.0"
     inkscape:pageshadow="2"
     inkscape:zoom="0.35"
     inkscape:cx="-765.80357"
     inkscape:cy="-177.94642"
     inkscape:document-units="px"
     inkscape:current-layer="layer1"
     showgrid="false"
     fit-margin-top="0"
     fit-margin-left="0"
     fit-margin-right="0"
     fit-margin-bottom="0"
     inkscape:window-width="1474"
     inkscape:window-height="841"
     inkscape:window-x="54"
     inkscape:window-y="-8"
     inkscape:window-maximized="1" />
  <metadata
     id="metadata5472">
    <rdf:RDF>
      <cc:Work
         rdf:about="">
        <dc:format>image/svg+xml</dc:format>
        <dc:type
           rdf:resource="http://purl.org/dc/dcmitype/StillImage" />
        <dc:title></dc:title>
      </cc:Work>
    </rdf:RDF>
  </metadata>
  <g
     inkscape:label="Layer 1"
     inkscape:groupmode="layer"
     id="layer1"
     transform="translate(-560.80357,-253.16578)">
    <g
       id="g9655"
       transform="matrix(1.25,0,0,-1.25,633.31317,294.63628)">
      <path
         d="m 0,0 c 0,-9.812 -7.954,-17.766 -17.767,-17.766 -9.811,0 -17.765,7.954 -17.765,17.766 0,9.813 7.954,17.767 17.765,17.767 C -7.954,17.767 0,9.813 0,0"
         style="fill:#f8d452;fill-opacity:1;fill-rule:nonzero;stroke:none"
         id="path9657"
         inkscape:connector-curvature="0" />
    </g>
    <path
       d="m 614.55357,269.41578 -7.5,0 0,-15 7.5,0 0,15 z"
       style="fill:#f8d452;fill-opacity:1;fill-rule:nonzero;stroke:none"
       id="path9659"
       inkscape:connector-curvature="0" />
    <g
       id="g9661"
       transform="matrix(1.25,0,0,-1.25,595.07957,274.08203)">
      <path
         d="m 0,0 -6,10.393 4.99,2.882 6,-10.394 L 0,0 Z"
         style="fill:#f8d452;fill-opacity:1;fill-rule:nonzero;stroke:none"
         id="path9663"
         inkscape:connector-curvature="0" />
    </g>
    <g
       id="g9665"
       transform="matrix(1.25,0,0,-1.25,628.39367,331.78291)">
      <path
         d="m 0,0 -6.001,10.394 4.99,2.88 L 4.99,2.881 0,0 Z"
         style="fill:#f8d452;fill-opacity:1;fill-rule:nonzero;stroke:none"
         id="path9667"
         inkscape:connector-curvature="0" />
    </g>
    <g
       id="g9669"
       transform="matrix(1.25,0,0,-1.25,644.65107,318.16091)">
      <path
         d="m 0,0 -10.394,6 2.881,4.99 10.394,-6 L 0,0 Z"
         style="fill:#f8d452;fill-opacity:1;fill-rule:nonzero;stroke:none"
         id="path9671"
         inkscape:connector-curvature="0" />
    </g>
    <path
       d="m 585.80357,298.16578 -15,0 0,-7.5 15,0 0,7.5 z"
       style="fill:#f8d452;fill-opacity:1;fill-rule:nonzero;stroke:none"
       id="path9673"
       inkscape:connector-curvature="0" />
    <path
       d="m 652.05357,298.16578 -15,0 0,-7.5 15,0 0,7.5 z"
       style="fill:#f8d452;fill-opacity:1;fill-rule:nonzero;stroke:none"
       id="path9675"
       inkscape:connector-curvature="0" />
    <g
       id="g9677"
       transform="matrix(1.25,0,0,-1.25,577.55997,318.16091)">
      <path
         d="m 0,0 -2.881,4.99 10.393,6 L 10.393,6 0,0 Z"
         style="fill:#f8d452;fill-opacity:1;fill-rule:nonzero;stroke:none"
         id="path9679"
         inkscape:connector-curvature="0" />
    </g>
    <g
       id="g9681"
       transform="matrix(1.25,0,0,-1.25,635.26017,284.84803)">
      <path
         d="m 0,0 -2.881,4.99 10.394,6 L 10.394,6 0,0 Z"
         style="fill:#f8d452;fill-opacity:1;fill-rule:nonzero;stroke:none"
         id="path9683"
         inkscape:connector-curvature="0" />
    </g>
    <g
       id="g9685"
       transform="matrix(1.25,0,0,-1.25,627.13037,274.08203)">
      <path
         d="M 0,0 -4.99,2.881 1.011,13.275 6.001,10.393 0,0 Z"
         style="fill:#f8d452;fill-opacity:1;fill-rule:nonzero;stroke:none"
         id="path9687"
         inkscape:connector-curvature="0" />
    </g>
    <g
       id="g9689"
       transform="matrix(1.25,0,0,-1.25,593.81737,331.78291)">
      <path
         d="M 0,0 -4.99,2.881 1.011,13.274 6,10.394 0,0 Z"
         style="fill:#f8d452;fill-opacity:1;fill-rule:nonzero;stroke:none"
         id="path9691"
         inkscape:connector-curvature="0" />
    </g>
    <path
       d="m 614.55357,335.66578 -7.5,0 0,-15 7.5,0 0,15 z"
       style="fill:#f8d452;fill-opacity:1;fill-rule:nonzero;stroke:none"
       id="path9693"
       inkscape:connector-curvature="0" />
    <g
       id="g9695"
       transform="matrix(1.25,0,0,-1.25,586.94967,284.84803)">
      <path
         d="m 0,0 -10.393,6 2.881,4.99 10.393,-6 L 0,0 Z"
         style="fill:#f8d452;fill-opacity:1;fill-rule:nonzero;stroke:none"
         id="path9697"
         inkscape:connector-curvature="0" />
    </g>
  </g>
</svg>
