<?xml version="1.0" encoding="UTF-8" standalone="no"?>
<!-- Created with Inkscape (http://www.inkscape.org/) -->

<svg
   xmlns:dc="http://purl.org/dc/elements/1.1/"
   xmlns:cc="http://creativecommons.org/ns#"
   xmlns:rdf="http://www.w3.org/1999/02/22-rdf-syntax-ns#"
   xmlns:svg="http://www.w3.org/2000/svg"
   xmlns="http://www.w3.org/2000/svg"
   xmlns:sodipodi="http://sodipodi.sourceforge.net/DTD/sodipodi-0.dtd"
   xmlns:inkscape="http://www.inkscape.org/namespaces/inkscape"
   width="28.574999mm"
   height="28.575001mm"
   viewBox="0 0 101.24999 101.25001"
   id="svg5798"
   version="1.1"
   inkscape:version="0.91 r13725"
   sodipodi:docname="Thunder-shower-(night).svg">
  <defs
     id="defs5800" />
  <sodipodi:namedview
     id="base"
     pagecolor="#ffffff"
     bordercolor="#666666"
     borderopacity="1.0"
     inkscape:pageopacity="0.0"
     inkscape:pageshadow="2"
     inkscape:zoom="2.8"
     inkscape:cx="144.46429"
     inkscape:cy="73.39286"
     inkscape:document-units="px"
     inkscape:current-layer="layer1"
     showgrid="false"
     fit-margin-top="0"
     fit-margin-left="0"
     fit-margin-right="0"
     fit-margin-bottom="0"
     inkscape:window-width="1474"
     inkscape:window-height="841"
     inkscape:window-x="54"
     inkscape:window-y="-8"
     inkscape:window-maximized="1" />
  <metadata
     id="metadata5803">
    <rdf:RDF>
      <cc:Work
         rdf:about="">
        <dc:format>image/svg+xml</dc:format>
        <dc:type
           rdf:resource="http://purl.org/dc/dcmitype/StillImage" />
        <dc:title></dc:title>
      </cc:Work>
    </rdf:RDF>
  </metadata>
  <g
     inkscape:label="Layer 1"
     inkscape:groupmode="layer"
     id="layer1"
     transform="translate(-444.31829,-300.6035)">
    <g
       id="g840"
       transform="matrix(1.2500001,0,0,-1.2500001,480.42492,346.853)">
      <path
         d="m 0,0 -8.329,-17 9.558,0 -6.941,-17.758 0.628,-0.508 L 10.542,-12 1.224,-12 8.552,0 0,0 Z"
         style="fill:#faea43;fill-opacity:1;fill-rule:nonzero;stroke:none"
         id="path842"
         inkscape:connector-curvature="0" />
    </g>
    <g
       id="g844"
       transform="matrix(1.2500001,0,0,-1.2500001,504.32254,326.2805)">
      <path
         d="m 0,0 c -0.508,0 -1.012,-0.035 -1.511,-0.098 -1.882,7.121 -8.366,12.383 -16.055,12.383 -7.69,0 -14.172,-5.262 -16.056,-12.383 -0.496,0.065 -1.001,0.098 -1.509,0.098 -6.719,0 -12.187,-5.496 -12.187,-12.228 0,-6.734 5.468,-12.23 12.187,-12.23 l 8.128,0 0,6 -8.128,0 c -3.557,0 -6.452,2.792 -6.452,6.357 0,3.564 2.895,6.408 6.452,6.408 2.291,0 4.432,-1.264 5.584,-3.254 l 4.962,2.871 c -0.918,1.584 -2.169,2.907 -3.635,3.918 1.016,4.961 5.407,8.701 10.654,8.701 5.996,0 10.874,-4.813 10.874,-10.82 0,-2.253 -0.683,-4.181 -1.972,-6.181 l 6.492,0 c 0.616,1 1.002,3.051 1.149,4.702 0.336,0.055 0.677,0.047 1.023,0.047 3.558,0 6.451,-2.809 6.451,-6.373 0,-3.565 -2.893,-6.376 -6.451,-6.376 l -8.003,0 0,-6 8.003,0 c 6.719,0 12.186,5.496 12.186,12.23 C 12.186,-5.496 6.719,0 0,0"
         style="fill:#2b2b2a;fill-opacity:1;fill-rule:nonzero;stroke:none"
         id="path846"
         inkscape:connector-curvature="0" />
    </g>
    <g
       id="g848"
       transform="matrix(1.2500001,0,0,-1.2500001,542.34141,336.4215)">
      <path
         d="m 0,0 c -9.766,0 -17.684,7.915 -17.684,17.677 0,4.033 1.355,7.75 3.63,10.725 -8.674,-1.108 -15.383,-8.495 -15.417,-17.458 7.948,-0.398 14.292,-6.988 14.292,-15.031 0,-0.801 -0.063,-1.588 -0.185,-2.354 1.155,-0.239 2.351,-0.363 3.576,-0.363 5.732,0 10.824,2.728 14.055,6.954 C 1.524,0.053 0.768,0 0,0"
         style="fill:#c8c7c7;fill-opacity:1;fill-rule:nonzero;stroke:none"
         id="path850"
         inkscape:connector-curvature="0" />
    </g>
  </g>
</svg>
