<?xml version="1.0" encoding="UTF-8" standalone="no"?>
<!-- Created with Inkscape (http://www.inkscape.org/) -->

<svg
   xmlns:dc="http://purl.org/dc/elements/1.1/"
   xmlns:cc="http://creativecommons.org/ns#"
   xmlns:rdf="http://www.w3.org/1999/02/22-rdf-syntax-ns#"
   xmlns:svg="http://www.w3.org/2000/svg"
   xmlns="http://www.w3.org/2000/svg"
   xmlns:sodipodi="http://sodipodi.sourceforge.net/DTD/sodipodi-0.dtd"
   xmlns:inkscape="http://www.inkscape.org/namespaces/inkscape"
   width="28.575001mm"
   height="28.575001mm"
   viewBox="0 0 101.25 101.25001"
   id="svg5798"
   version="1.1"
   inkscape:version="0.91 r13725"
   sodipodi:docname="Thunder.svg">
  <defs
     id="defs5800" />
  <sodipodi:namedview
     id="base"
     pagecolor="#ffffff"
     bordercolor="#666666"
     borderopacity="1.0"
     inkscape:pageopacity="0.0"
     inkscape:pageshadow="2"
     inkscape:zoom="2.8"
     inkscape:cx="43.356088"
     inkscape:cy="47.232137"
     inkscape:document-units="px"
     inkscape:current-layer="layer1"
     showgrid="false"
     fit-margin-top="0"
     fit-margin-left="0"
     fit-margin-right="0"
     fit-margin-bottom="0"
     inkscape:window-width="1474"
     inkscape:window-height="841"
     inkscape:window-x="54"
     inkscape:window-y="-8"
     inkscape:window-maximized="1" />
  <metadata
     id="metadata5803">
    <rdf:RDF>
      <cc:Work
         rdf:about="">
        <dc:format>image/svg+xml</dc:format>
        <dc:type
           rdf:resource="http://purl.org/dc/dcmitype/StillImage" />
        <dc:title></dc:title>
      </cc:Work>
    </rdf:RDF>
  </metadata>
  <g
     inkscape:label="Layer 1"
     inkscape:groupmode="layer"
     id="layer1"
     transform="translate(-640.03257,-219.17494)">
    <path
       inkscape:connector-curvature="0"
       id="path1362"
       style="fill:#faea43;fill-opacity:1;fill-rule:nonzero;stroke:none"
       d="m 688.98994,266.67506 -10.4375,20 11.97625,0 -8.6975,22.66 0.78875,0.40375 19.57625,-29.31375 -11.675,0 9.18125,-13.75 -10.7125,0 z" />
    <path
       inkscape:connector-curvature="0"
       id="path1366"
       style="fill:#2b2b2a;fill-opacity:1;fill-rule:nonzero;stroke:none"
       d="m 712.94019,245.77969 c -0.635,0 -1.2675,0.0437 -1.8925,0.1225 -2.3575,-8.9 -10.48,-15.47875 -20.115,-15.47875 -9.6325,0 -17.75625,6.57875 -20.11375,15.47875 -0.6225,-0.0813 -1.255,-0.1225 -1.8925,-0.1225 -8.4175,0 -15.26875,7.03375 -15.26875,15.4475 0,8.41625 6.85125,15.4475 15.26875,15.4475 l 9.85625,0 0,-7.5 -9.85625,0 c -4.455,0 -8.08375,-3.65 -8.08375,-8.10625 0,-4.45375 3.62876,-8.0925 8.08375,-8.0925 2.87125,0 5.55125,1.54 6.9975,4.02875 l 6.215,-3.61 c -1.15,-1.98 -2.7175,-3.6425 -4.5525,-4.90625 1.27125,-6.20125 6.7725,-10.88 13.34625,-10.88 7.5125,0 13.62375,6.1725 13.62375,13.6825 0,2.81375 -0.855,5.38375 -2.47125,7.88375 l 8.135,0 c 0.77125,-2.5 1.255,-3.975 1.43875,-6.03875 0.4225,-0.0688 0.84875,-0.13875 1.28125,-0.13875 4.4575,0 8.08375,3.63375 8.08375,8.0875 0,4.45625 -3.62625,8.09 -8.08375,8.09 l -9.1575,0 0,7.5 9.1575,0 c 8.4175,0 15.26875,-7.03125 15.26875,-15.4475 0,-8.41375 -6.85125,-15.4475 -15.26875,-15.4475" />
  </g>
</svg>
