<?xml version="1.0" encoding="UTF-8" standalone="no"?>
<!-- Created with Inkscape (http://www.inkscape.org/) -->

<svg
   xmlns:dc="http://purl.org/dc/elements/1.1/"
   xmlns:cc="http://creativecommons.org/ns#"
   xmlns:rdf="http://www.w3.org/1999/02/22-rdf-syntax-ns#"
   xmlns:svg="http://www.w3.org/2000/svg"
   xmlns="http://www.w3.org/2000/svg"
   xmlns:sodipodi="http://sodipodi.sourceforge.net/DTD/sodipodi-0.dtd"
   xmlns:inkscape="http://www.inkscape.org/namespaces/inkscape"
   width="28.575001mm"
   height="28.575001mm"
   viewBox="0 0 101.25 101.25001"
   id="svg5798"
   version="1.1"
   inkscape:version="0.91 r13725"
   sodipodi:docname="Thunder-shower-(day).svg">
  <defs
     id="defs5800" />
  <sodipodi:namedview
     id="base"
     pagecolor="#ffffff"
     bordercolor="#666666"
     borderopacity="1.0"
     inkscape:pageopacity="0.0"
     inkscape:pageshadow="2"
     inkscape:zoom="2.8"
     inkscape:cx="12.073828"
     inkscape:cy="31.160725"
     inkscape:document-units="px"
     inkscape:current-layer="layer1"
     showgrid="false"
     fit-margin-top="0"
     fit-margin-left="0"
     fit-margin-right="0"
     fit-margin-bottom="0"
     inkscape:window-width="1474"
     inkscape:window-height="841"
     inkscape:window-x="54"
     inkscape:window-y="-8"
     inkscape:window-maximized="1" />
  <metadata
     id="metadata5803">
    <rdf:RDF>
      <cc:Work
         rdf:about="">
        <dc:format>image/svg+xml</dc:format>
        <dc:type
           rdf:resource="http://purl.org/dc/dcmitype/StillImage" />
        <dc:title></dc:title>
      </cc:Work>
    </rdf:RDF>
  </metadata>
  <g
     inkscape:label="Layer 1"
     inkscape:groupmode="layer"
     id="layer1"
     transform="translate(-451.5425,-258.37136)">
    <g
       id="g520"
       transform="matrix(1.25,0,0,-1.25,488.01087,305.87111)">
      <path
         d="m 0,0 -8.388,-16 9.624,0 -6.989,-18.013 0.634,-0.38 L 10.612,-11 1.231,-11 8.608,0 0,0 Z"
         style="fill:#faea43;fill-opacity:1;fill-rule:nonzero;stroke:none"
         id="path522"
         inkscape:connector-curvature="0" />
    </g>
    <path
       d="m 515.2925,274.62136 -7.5,0 0,-15 7.5,0 0,15 z"
       style="fill:#f8d452;fill-opacity:1;fill-rule:nonzero;stroke:none"
       id="path524"
       inkscape:connector-curvature="0" />
    <path
       d="m 515.2925,340.87136 -7.5,0 0,-15 7.5,0 0,15 z"
       style="fill:#f8d452;fill-opacity:1;fill-rule:nonzero;stroke:none"
       id="path526"
       inkscape:connector-curvature="0" />
    <path
       d="m 537.7925,295.87136 15,0 0,7.5 -15,0 0,-7.5 z"
       style="fill:#f8d452;fill-opacity:1;fill-rule:nonzero;stroke:none"
       id="path528"
       inkscape:connector-curvature="0" />
    <g
       id="g530"
       transform="matrix(1.25,0,0,-1.25,529.2133,336.99536)">
      <path
         d="M 0,0 -5.988,10.367 -1.01,13.24 4.981,2.873 0,0 Z"
         style="fill:#f8d452;fill-opacity:1;fill-rule:nonzero;stroke:none"
         id="path532"
         inkscape:connector-curvature="0" />
    </g>
    <g
       id="g534"
       transform="matrix(1.25,0,0,-1.25,536.0639,290.19124)">
      <path
         d="M 0,0 -2.875,4.977 7.496,10.962 10.369,5.986 0,0 Z"
         style="fill:#f8d452;fill-opacity:1;fill-rule:nonzero;stroke:none"
         id="path536"
         inkscape:connector-curvature="0" />
    </g>
    <g
       id="g538"
       transform="matrix(1.25,0,0,-1.25,545.434,323.41136)">
      <path
         d="M 0,0 -10.371,5.984 -7.498,10.961 2.873,4.975 0,0 Z"
         style="fill:#f8d452;fill-opacity:1;fill-rule:nonzero;stroke:none"
         id="path540"
         inkscape:connector-curvature="0" />
    </g>
    <g
       id="g542"
       transform="matrix(1.25,0,0,-1.25,527.9535,279.45636)">
      <path
         d="M 0,0 -4.979,2.873 1.008,13.242 5.988,10.37 0,0 Z"
         style="fill:#f8d452;fill-opacity:1;fill-rule:nonzero;stroke:none"
         id="path544"
         inkscape:connector-curvature="0" />
    </g>
    <g
       id="g546"
       transform="matrix(1.25,0,0,-1.25,511.9671,284.68636)">
      <path
         d="M 0,0 C -0.508,0 -1.014,-0.035 -1.514,-0.098 -3.4,7.021 -9.898,12.286 -17.605,12.286 -25.312,12.286 -31.81,7.021 -33.697,-0.098 -34.195,-0.033 -34.701,0 -35.211,0 c -6.734,0 -12.215,-5.242 -12.215,-11.974 0,-6.734 5.481,-11.974 12.215,-11.974 l 7.871,0 0,5 -7.871,0 c -3.564,0 -6.467,3.037 -6.467,6.601 0,3.564 2.903,6.531 6.467,6.531 2.297,0 4.441,-1.202 5.598,-3.192 l 4.972,2.902 c -0.919,1.584 -2.173,2.922 -3.642,3.932 1.017,4.961 5.418,8.708 10.678,8.708 6.009,0 10.898,-5.053 10.898,-11.06 0,-2.253 -0.684,-4.422 -1.977,-6.422 l 6.508,0 c 0.617,2 1.004,3.296 1.151,4.947 0.338,0.055 0.679,0.168 1.025,0.168 3.566,0 6.467,-2.992 6.467,-6.556 0,-3.564 -2.901,-6.559 -6.467,-6.559 l -7.34,0 0,-5 7.34,0 c 6.734,0 12.215,5.24 12.215,11.974 C 12.215,-5.242 6.734,0 0,0"
         style="fill:#2b2b2a;fill-opacity:1;fill-rule:nonzero;stroke:none"
         id="path548"
         inkscape:connector-curvature="0" />
    </g>
  </g>
</svg>
